<?xml  version="1.0" encoding="UTF-8"?>
<!DOCTYPE svg PUBLIC "-//W3C//DTD SVG 1.0//EN" "http://www.w3.org/TR/2001/REC-SVG-20010904/DTD/svg10.dtd" >
<svg xmlns="http://www.w3.org/2000/svg" >
<metadata>
<version>1.0</version>
<id><![CDATA[Didot Open Face W01]]></id>
<vendor>Monotype Imaging Inc.</vendor>
<credits>
<name>Fonts.com WebFonts</name>
<URL>http://webfonts.fonts.com</URL>
<role>Home of the Web fonts</role>
</credits>
<license>
<URL>http://webfonts.fonts.com/Legal</URL>
</license>
<copyright><![CDATA[Copyright © 2006 Linotype GmbH, www.linotype.com. All rights reserved. This font software may not be reproduced, modified, disclosed or transferred without the express written approval of Linotype GmbH. Didot is a trademark of Linotype GmbH and may be registered in certain jurisdictions. This typeface is original artwork of Linotype Design Studio. The design may be protected in certain jurisdictions.]]></copyright>
<trademark><![CDATA[Didot is a trademark of Linotype GmbH and may be registered in certain jurisdictions.]]></trademark>
<licensee>
<name></name>
</licensee>
</metadata>
<defs >
<font horiz-adv-x="519" id="2c9cbe74-c007-4436-af0f-21fa0c449489">
<font-face font-family="" panose-1="2 7 5 2 9 9 6 7 12 3" ascent="906" descent="-288" units-per-em="1000" alphabetic="0">
</font-face>
<missing-glyph horiz-adv-x="0" />

<glyph unicode="&#xA;" />
<glyph unicode="&#xD;" horiz-adv-x="0" />
<glyph unicode=" " horiz-adv-x="247" />
<glyph unicode="!" horiz-adv-x="301" d="M152 92Q174 92 189 74Q202 61 202 41Q202 17 185 3Q171 -11 151 -11Q128 -11 113 7Q99 21 99 41Q99 63 117 78Q131 92 152 92ZM151 79Q145 78 141 77T132 74Q113 64 113 41Q113 17 132 8Q140 3 151 2V79ZM107 634Q106 641 106 645T106 653Q106 672 120 686Q134 697 151 697Q172 697 184 683Q196 669 196 653Q196 650 196 646T195 634L159 170H143L107 634ZM151 685Q140 685 135 681Q118 670 118 653Q118 652 118 648T119 635L151 242V685Z"  />
<glyph unicode="&quot;" horiz-adv-x="424" d="M130 631Q129 640 129 647T129 663Q129 698 154 698Q178 698 178 663Q178 658 178 650T177 631L162 421H144L130 631ZM249 631Q248 643 248 651T247 663Q247 698 272 698Q296 698 296 662Q296 654 296 647T295 631L281 421H263L249 631Z"  />
<glyph unicode="#" horiz-adv-x="531" d="M123 225H-4L3 244H130L199 433H72L78 451H204L288 680H308L225 451H387L470 680H490L407 451H534L527 433H400L331 244H458L452 225H325L243 0H223L305 225H143L61 0H41L123 225ZM311 244L380 433H219L150 244H311Z"  />
<glyph unicode="$" horiz-adv-x="637" d="M301 -16Q284 -16 268 -15T236 -11Q222 -9 203 -3T158 11Q131 21 114 21Q92 21 85 0H72V205H82Q87 180 94 157T113 112Q146 44 195 20Q238 -2 301 -3V312Q285 317 272 321T248 328Q168 350 127 393Q88 432 88 498Q88 568 132 624Q191 694 301 697V753H316V697Q330 696 341 694T363 690Q371 688 385 682T417 668Q427 664 434 662T448 660Q466 660 477 681H489V507H478Q463 590 413 642Q375 680 316 685V411Q353 400 372 395T392 390Q557 340 557 207Q557 125 499 61Q442 -1 363 -11Q353 -13 342 -13T316 -15V-85H301V-16ZM301 685Q247 685 203 663Q168 643 152 616Q135 590 135 557Q135 490 200 451Q222 437 301 414V685ZM316 -3Q372 0 409 17Q447 36 469 75Q488 113 488 153Q488 216 448 252Q434 264 411 275T353 297Q346 299 337 302T316 308V-3ZM469 650Q464 648 459 648T449 647Q435 647 421 652Q439 637 450 620T469 583V650ZM84 22Q96 33 116 33Q133 33 153 26Q139 40 129 51T113 74Q105 85 99 97T84 126V22ZM463 45Q487 69 498 89Q520 130 520 180Q520 268 460 308Q446 317 430 324T393 338Q377 343 360 348T322 361Q229 388 200 403Q116 441 116 531Q116 545 118 561T128 596Q114 572 107 549T100 499Q100 419 166 377Q178 369 196 361T240 345Q243 344 261 339T314 323Q403 296 435 278Q470 257 484 225Q500 193 500 154Q500 95 463 45Z"  />
<glyph unicode="%" horiz-adv-x="743" d="M180 -6L544 694L562 686L199 -14L180 -6ZM209 694Q235 694 261 684T310 653Q368 605 368 537Q368 471 310 420Q264 380 208 380Q151 380 105 418Q80 441 66 468Q56 485 52 502T48 538Q48 606 105 653Q153 694 209 694ZM206 681Q158 681 138 647Q127 629 122 602T116 540Q116 463 136 429Q157 393 208 393Q257 393 280 429Q300 466 300 539Q300 611 279 647Q257 681 206 681ZM126 654Q60 606 60 538Q60 481 102 438Q107 433 113 428T128 417Q86 462 86 541Q86 608 126 654ZM288 654Q301 633 306 604T312 539Q312 461 289 419Q338 467 338 537Q338 607 288 654ZM537 300Q589 300 638 259Q694 209 694 142Q694 75 637 26Q590 -14 536 -14Q475 -14 433 24Q407 45 393 74Q375 105 375 143Q375 211 432 259Q481 300 537 300ZM533 287Q485 287 464 253Q442 215 442 146Q442 71 463 35Q484 -1 535 -1Q586 -1 606 35Q627 69 627 145Q627 218 605 253Q584 287 533 287ZM454 260Q388 212 388 144Q388 89 430 44Q435 38 441 33T456 23Q414 68 414 147Q414 213 454 260ZM616 260Q640 218 640 145Q640 68 616 26Q666 73 666 143Q666 210 616 260Z"  />
<glyph unicode="&amp;" horiz-adv-x="743" d="M668 125Q668 83 656 55Q643 25 619 6Q595 -14 557 -14Q514 -14 487 14Q480 22 472 33T455 59Q376 -14 280 -14Q193 -14 134 48Q72 115 72 203Q72 345 257 438Q251 452 247 462T241 478Q225 519 225 557Q225 619 266 658Q303 694 355 694Q398 694 421 667Q442 640 442 601Q442 515 347 465L512 147Q535 186 547 236T560 350Q560 407 548 434Q536 465 499 470Q494 471 487 471T468 471V482H648V471Q605 472 586 443Q578 430 575 398Q574 394 574 382T573 350Q571 215 519 133Q531 110 541 94T560 66Q584 34 607 34Q640 34 651 78Q655 94 655 125H668ZM263 428Q242 417 226 406T197 384Q151 344 151 281Q151 255 156 228T173 172Q199 101 253 50Q293 12 330 12Q384 12 448 71L263 428ZM341 477Q430 521 430 598Q430 637 412 658Q392 681 363 681Q334 681 315 660Q297 639 297 604Q297 574 318 525Q323 513 328 501T341 477ZM536 470Q544 463 550 455T562 434Q568 457 584 470H536ZM304 451Q266 522 266 574Q266 632 308 671Q238 636 238 557Q238 504 274 435L454 88Q465 67 475 51T497 24Q520 -1 557 -1Q583 -1 606 12Q608 14 611 16T620 23Q596 15 581 15Q542 15 519 46Q509 58 501 73T482 105L304 451ZM315 1Q257 7 221 32Q175 63 145 120Q118 171 118 224Q118 286 159 359Q148 348 140 339T124 321Q84 269 84 203Q84 119 143 57Q198 -1 283 -1Q289 -1 297 -1T315 1Z"  />
<glyph unicode="&apos;" horiz-adv-x="265" d="M109 631Q108 640 108 647T108 663Q108 698 133 698Q157 698 157 663Q157 658 157 650T156 631L141 421H123L109 631Z"  />
<glyph unicode="(" horiz-adv-x="265" d="M224 -276Q165 -185 136 -114Q74 42 74 202Q74 380 145 548Q156 575 175 609T223 689L240 679Q182 587 156 521Q95 366 95 205Q95 119 112 36T164 -129Q177 -160 195 -194T240 -265L224 -276Z"  />
<glyph unicode=")" horiz-adv-x="265" d="M26 -266Q55 -219 76 -180T110 -108Q171 47 171 208Q171 383 101 542Q88 574 70 607T27 678L41 689Q71 642 93 602T130 526Q191 376 191 210Q191 31 120 -135Q109 -161 90 -196T42 -276L26 -266Z"  />
<glyph unicode="*" horiz-adv-x="424" d="M209 501Q174 475 151 452T114 409Q103 391 80 391Q62 391 52 404Q41 417 41 431Q41 456 66 467Q70 469 91 471Q112 473 141 481T206 506Q131 540 78 542Q73 543 69 544T61 547Q41 559 41 582Q41 600 54 611Q67 622 81 622Q95 622 108 611Q110 609 112 605T120 594Q148 555 209 512Q200 597 176 640Q172 647 172 658Q172 674 185 687Q198 697 212 697Q229 697 242 684Q252 671 252 657Q252 649 243 628Q233 608 227 579T215 512Q250 537 273 560T310 605Q322 622 343 622Q361 622 372 608Q383 597 383 582Q383 556 358 545Q355 544 349 543T333 541Q290 540 218 506Q253 490 281 482T333 471Q354 469 360 466Q383 455 383 431Q383 414 370 401Q359 391 343 391Q327 391 316 401Q313 404 303 419Q277 457 215 501Q220 457 228 425T248 372Q252 367 252 354Q252 337 239 326Q226 315 212 315Q194 315 182 329Q172 341 172 354Q172 364 181 384Q201 425 209 501ZM212 685Q203 685 199 681Q185 673 185 658Q185 651 194 635Q199 625 203 611T212 576V685ZM367 417Q370 424 370 430Q370 448 353 456Q351 456 346 456T332 458Q321 459 307 462T272 472L367 417ZM367 596Q358 609 343 609Q331 609 325 603Q323 601 321 598T314 587Q303 570 272 541L367 596ZM152 541Q120 571 103 598Q95 609 81 609Q66 609 57 596L152 541ZM152 472Q107 458 78 457Q73 457 67 454Q53 446 53 431Q53 424 57 417L152 472ZM212 436Q201 392 188 367Q185 362 185 354Q185 340 199 331Q201 329 204 329T212 328V436Z"  />
<glyph unicode="+" horiz-adv-x="566" d="M272 220H53V238H272V458H292V238H512V220H292V0H272V220Z"  />
<glyph unicode="&#x2c;" horiz-adv-x="265" d="M83 -165Q173 -98 173 -35Q173 -10 156 13Q138 -11 114 -11Q91 -11 76 4Q62 20 62 41Q62 62 78 78Q95 95 122 95Q156 95 178 67Q200 36 200 -1Q200 -54 159 -112Q145 -129 129 -145T92 -177L83 -165ZM121 83Q103 81 93 74Q74 62 74 40Q74 24 86 12Q98 2 112 2Q117 2 121 3V83Z"  />
<glyph unicode="-" horiz-adv-x="353" d="M88 237H265V173H88V237ZM233 203V224H100V203H233Z"  />
<glyph unicode="." horiz-adv-x="265" d="M134 92Q154 92 171 74Q184 61 184 41Q184 17 167 3Q153 -11 133 -11Q110 -11 95 7Q81 21 81 41Q81 63 98 78Q114 92 134 92ZM133 79Q121 77 114 74Q95 64 95 41Q95 17 114 8Q120 4 133 2V79Z"  />
<glyph unicode="/" horiz-adv-x="283" d="M3 1L260 686L280 679L21 -6L3 1Z"  />
<glyph unicode="0" horiz-adv-x="496" d="M251 694Q308 694 355 664Q471 588 471 340Q471 147 402 62Q342 -14 246 -14Q139 -14 81 76Q24 164 24 341Q24 533 94 618Q156 694 251 694ZM246 681Q172 681 143 592Q117 509 117 340Q117 289 120 245T128 162Q143 57 174 26Q202 -1 246 -1Q292 -1 320 27Q377 85 377 342Q377 390 375 434T367 518Q356 592 342 622Q315 681 246 681ZM168 663Q145 651 127 635T93 596Q36 513 36 340Q36 79 166 16Q129 44 111 85Q73 167 73 341Q73 530 122 612Q142 644 168 663ZM329 664Q390 604 390 340Q390 80 329 16Q345 28 359 45T384 85Q426 166 426 340Q426 599 329 664Z"  />
<glyph unicode="1" horiz-adv-x="496" d="M118 12H224V619Q195 599 160 579T82 537L75 548Q108 566 136 582T186 614Q215 634 240 654T286 694H306V12H412V0H118V12ZM266 12V650Q259 645 252 639T237 628V12H266Z"  />
<glyph unicode="2" horiz-adv-x="496" d="M11 11Q44 36 78 65T147 130Q204 185 242 234T302 329Q343 414 343 508Q343 593 309 639Q279 681 222 681Q195 681 175 673T137 650Q115 631 115 603Q115 597 117 587T124 559Q125 554 125 550T126 542Q126 512 87 512Q64 512 52 524Q39 537 39 559Q39 598 74 636Q129 694 227 694Q320 694 382 631Q436 574 436 499Q436 415 350 310Q330 285 303 256T240 193Q232 186 205 162T129 93L111 75H326Q384 75 410 101Q432 124 436 172H448V0H11V11ZM409 83Q383 63 325 63H95Q89 56 81 50T64 36H409V83ZM241 214Q276 252 302 287T347 355Q390 433 390 499Q390 567 352 622Q330 654 295 671Q355 626 355 509Q355 418 323 345Q299 290 241 214ZM126 659Q113 651 103 644T83 626Q52 595 52 559Q52 543 60 535Q66 528 74 528Q89 528 89 543Q89 549 86 564Q83 577 83 587Q83 610 103 635Q107 640 112 645T126 659Z"  />
<glyph unicode="3" horiz-adv-x="496" d="M41 138Q46 116 52 99T68 67Q91 32 132 14Q168 -1 209 -1Q287 -1 319 49Q336 74 343 111T351 199Q351 290 325 329Q296 376 226 376Q166 376 112 341L103 355Q113 360 121 364T138 371Q156 378 196 389Q268 408 301 449Q333 487 333 565Q333 681 233 681Q190 681 161 661Q135 642 135 610Q135 598 142 579Q152 559 152 549Q152 520 111 520Q69 520 69 561Q69 606 109 646Q158 694 243 694Q320 694 371 652Q422 608 422 549Q422 478 336 428Q314 415 289 405T235 389Q295 385 350 351Q445 296 445 202Q445 115 379 51Q312 -14 212 -14Q110 -14 58 56Q35 87 26 136L41 138ZM309 18Q323 27 334 37T354 60Q399 121 399 202Q399 295 325 351Q365 306 365 199Q365 68 309 18ZM287 418Q316 434 330 448Q379 491 379 549Q379 601 346 642Q337 653 327 660T305 673Q347 637 347 565Q347 502 325 461Q311 439 287 418ZM134 649Q81 609 81 561Q81 535 102 535Q117 535 117 549Q117 551 117 556T114 570Q111 583 111 596Q111 620 134 649Z"  />
<glyph unicode="4" horiz-adv-x="496" d="M218 12H303V167H31Q40 193 61 236T115 343Q194 499 262 596Q323 682 339 690Q344 692 351 693T370 694Q410 694 410 673Q410 664 397 652Q323 586 239 481Q193 424 147 350T52 182H303V439H383V182H468V167H383V12H468V0H218V12ZM344 12V427H315V12H344ZM140 366Q213 480 259 542Q303 603 346 648Q366 671 366 675Q366 680 355 680Q343 680 333 668Q322 656 307 636T271 586Q240 541 208 487T140 366Z"  />
<glyph unicode="5" horiz-adv-x="496" d="M53 296L115 692H145Q171 665 195 647Q239 615 296 615Q358 615 398 656Q405 664 412 672T430 692L440 686Q425 663 409 643T376 604Q343 567 320 555Q306 547 290 544T256 541Q200 541 112 585L76 356Q132 424 226 424Q313 424 374 371Q440 311 440 223Q440 159 403 98Q336 -14 206 -14Q125 -14 78 26Q69 34 62 44T49 67Q41 83 41 99Q41 137 90 137Q135 137 135 101Q135 98 135 94T134 82Q133 77 133 74T133 67Q133 -1 214 -1Q289 -1 315 46Q347 102 347 226Q347 317 323 362Q295 411 223 411Q155 411 107 369Q78 341 65 294L53 296ZM311 395Q326 384 333 368Q359 318 359 225Q359 88 319 29Q327 37 334 46T349 64Q394 134 394 223Q394 307 350 361Q334 384 311 395ZM143 6Q128 15 119 22T104 35Q91 51 91 74Q91 76 91 81T93 94Q94 98 94 104Q94 121 76 121Q53 121 53 99Q53 76 73 50Q87 29 118 15Q122 13 128 12T143 6ZM119 639Q136 628 149 619T172 604Q195 590 219 584T268 577Q307 577 339 594Q356 603 377 623Q343 603 297 603Q233 603 182 642Q172 649 162 658T139 680H126L119 639Z"  />
<glyph unicode="6" horiz-adv-x="496" d="M121 350Q168 424 258 424Q338 424 399 365Q465 300 465 208Q465 120 399 53Q365 20 328 3T248 -14Q183 -14 132 27Q77 68 50 152Q31 209 31 286Q31 413 82 518Q108 570 141 607T216 668Q239 682 263 688T312 694Q372 694 408 658Q438 628 438 585Q438 560 424 546Q408 533 386 533Q366 533 353 542Q343 550 343 563Q343 572 357 600Q367 616 367 635Q367 681 310 681Q271 681 236 658Q172 617 142 484Q133 439 121 350ZM250 411Q216 411 181 392Q141 367 128 329Q118 303 118 259Q118 230 121 199T129 135Q140 63 166 32Q197 -1 248 -1Q315 -1 342 48Q370 99 370 210Q370 314 345 361Q318 411 250 411ZM334 394Q342 388 347 381T356 368Q372 335 377 297Q379 277 380 256T382 212Q382 119 365 68Q358 48 342 25Q419 93 419 207Q419 296 376 355Q368 366 358 376T334 394ZM369 670Q379 653 379 635Q379 615 362 584Q355 571 355 564Q355 548 376 548Q390 548 393 559Q397 567 397 586Q397 641 369 670ZM155 27Q128 53 114 83Q75 164 75 280Q75 335 84 389T112 497Q137 568 176 616Q179 621 184 627T198 642Q166 619 143 591Q43 467 43 286Q43 162 98 80Q109 65 123 52T155 27Z"  />
<glyph unicode="7" horiz-adv-x="496" d="M65 680H436Q433 621 423 565T398 455Q338 239 237 60Q211 12 189 -5Q173 -16 150 -16Q131 -16 118 -8Q105 3 105 17Q105 25 108 32T118 48Q120 50 127 56T146 74Q180 108 206 137T252 193Q279 230 304 276T352 379Q377 439 392 493T413 599H178Q126 599 99 570Q79 546 75 503H65V680ZM77 586Q103 638 178 638H416Q417 649 417 656T418 668H77V586ZM334 308Q314 269 297 239T263 185Q243 159 217 130T155 65Q144 54 137 47T126 34Q119 27 119 19Q119 5 137 5Q146 5 154 13Q165 26 183 50T227 113Q288 205 334 308Z"  />
<glyph unicode="8" horiz-adv-x="496" d="M195 349Q170 361 152 373T119 397Q62 448 62 521Q62 588 113 638Q171 694 254 694Q326 694 378 651Q426 613 426 552Q426 491 375 443Q347 417 298 389Q368 353 397 327Q427 299 441 265Q449 248 452 231T456 196Q456 138 418 85Q381 33 327 6Q306 -5 283 -9T233 -14Q141 -14 83 44Q32 95 32 164Q32 285 195 349ZM207 343Q165 323 140 288Q111 246 111 163Q111 81 143 40Q175 -1 237 -1Q303 -1 340 45Q379 96 379 164Q379 220 348 258Q327 282 255 319L207 343ZM285 394Q301 404 311 413T329 430Q354 465 354 534Q354 681 249 681Q202 681 166 650Q129 616 129 556Q129 513 151 480Q169 453 236 418Q247 412 256 408T272 400Q279 396 285 394ZM344 31Q352 37 358 43T370 55Q424 119 424 195Q424 265 361 312Q332 333 247 374Q165 414 138 443Q96 488 96 549Q96 579 111 604T149 650Q115 628 95 594T75 521Q75 466 115 420Q137 396 160 383T215 354Q311 305 339 285Q393 240 393 164Q393 89 344 31ZM323 668Q367 627 367 536Q367 476 348 436Q392 489 392 551Q392 633 323 668ZM150 14Q73 69 73 163Q73 228 106 275Q119 291 139 308Q44 253 44 164Q44 101 92 53Q104 41 118 32T150 14Z"  />
<glyph unicode="9" horiz-adv-x="496" d="M369 336Q324 256 229 256Q150 256 89 315Q23 379 23 472Q23 560 89 626Q157 694 240 694Q305 694 356 653Q413 610 438 529Q457 469 457 372Q457 160 371 62Q336 22 290 3Q253 -14 207 -14Q135 -14 87 27Q50 57 50 101Q50 129 64 142Q80 156 102 156Q122 156 135 146Q145 138 145 125Q145 120 142 112T132 90Q123 70 123 53Q123 32 139 18Q166 -1 207 -1Q266 -1 302 38Q337 79 352 158Q369 238 369 336ZM239 681Q200 681 170 659Q139 636 126 575Q122 554 120 528T118 467Q118 366 143 318Q170 268 236 268Q301 268 343 318Q370 348 370 414Q370 468 361 536Q356 575 347 603T323 647Q292 681 239 681ZM308 26Q414 108 414 376Q414 429 410 470T396 543Q375 614 335 653Q353 631 364 593Q382 528 382 384Q382 311 378 254T365 155Q348 71 308 26ZM154 285Q122 308 105 333Q73 382 73 471Q73 592 146 655Q132 647 120 638T97 617Q35 553 35 472Q35 387 97 325Q122 300 154 285ZM120 19Q115 23 112 26T105 32Q91 46 91 67Q91 74 93 82T98 100Q105 118 105 125Q105 138 89 138Q78 138 73 132Q62 121 62 101Q62 52 120 19Z"  />
<glyph unicode=":" horiz-adv-x="301" d="M152 92Q174 92 189 74Q202 61 202 41Q202 17 185 3Q171 -11 151 -11Q128 -11 113 7Q99 21 99 41Q99 63 117 78Q131 92 152 92ZM151 79Q145 78 141 77T132 74Q113 64 113 41Q113 17 132 8Q140 3 151 2V79ZM152 420Q174 420 189 403Q202 389 202 370Q202 347 185 331Q170 318 151 318Q128 318 113 335Q99 351 99 370Q99 390 117 407Q132 420 152 420ZM151 408Q140 407 132 402Q113 392 113 369Q113 346 132 336Q140 331 151 330V408Z"  />
<glyph unicode=";" horiz-adv-x="301" d="M96 -165Q186 -99 186 -35Q186 -10 169 13Q152 -11 127 -11Q103 -11 90 4Q75 19 75 41Q75 63 92 78Q108 95 136 95Q170 95 191 67Q213 36 213 -1Q213 -56 172 -112Q158 -129 142 -145T105 -177L96 -165ZM135 83Q118 82 106 74Q88 62 88 40Q88 25 99 12Q111 2 125 2Q130 2 135 3V83ZM142 420Q163 420 180 403Q193 387 193 370Q193 348 176 331Q160 318 141 318Q120 318 103 335Q90 351 90 370Q90 391 107 407Q123 420 142 420ZM141 408Q129 406 122 402Q103 391 103 369Q103 347 122 336Q129 332 141 330V408Z"  />
<glyph unicode="&lt;" horiz-adv-x="566" d="M11 225V233L554 458V439L43 229L554 19V0L11 225Z"  />
<glyph unicode="=" horiz-adv-x="566" d="M53 320H512V302H53V320ZM53 157H512V138H53V157Z"  />
<glyph unicode="&gt;" horiz-adv-x="566" d="M11 19L522 229L11 439V458L554 233V225L11 0V19Z"  />
<glyph unicode="?" horiz-adv-x="389" d="M114 92Q134 92 151 74Q164 59 164 41Q164 17 147 3Q133 -11 113 -11Q90 -11 74 7Q61 22 61 41Q61 63 78 78Q94 92 114 92ZM113 79Q101 77 94 74Q74 63 74 41Q74 17 94 8Q100 4 113 2V79ZM105 410H122Q127 400 131 393T139 381Q157 363 184 363Q227 363 240 406Q245 423 247 453T250 527Q250 620 238 653Q226 685 188 685Q165 685 148 672Q132 661 132 647Q132 634 144 616Q156 599 156 585Q156 551 115 551Q73 551 73 588Q73 621 96 650Q131 697 194 697Q245 697 276 663Q317 618 317 527Q317 439 279 391Q246 349 194 349Q166 349 148 360Q137 367 121 383V169H105V410ZM236 371Q290 408 290 532Q290 636 240 675Q264 645 264 537Q264 441 254 407Q248 386 236 371ZM121 658Q86 627 86 588Q86 567 104 567Q120 567 120 587Q120 594 117 609Q116 617 116 623T115 633Q115 644 121 658Z"  />
<glyph unicode="@" horiz-adv-x="796" d="M686 -71Q622 -117 555 -140T407 -164Q334 -164 270 -140T159 -72T84 35T56 173Q56 253 86 321T169 440T291 518T438 547Q501 547 558 528T660 472T730 383T756 264Q756 225 743 179T706 93T645 27T563 0Q530 0 510 14T483 64Q478 53 472 45T458 29Q426 0 371 0Q265 0 265 80Q265 118 293 141Q303 149 321 157T365 174Q375 175 417 189Q432 193 442 196T457 204Q474 215 478 230Q483 245 483 276Q483 295 482 307T478 327Q468 361 418 361Q387 361 367 344Q358 333 358 315Q358 310 358 305T360 293Q363 278 363 271Q363 246 328 246Q291 246 291 280Q291 317 321 343Q356 371 418 371Q497 371 530 327Q538 318 542 308T548 286Q549 281 549 272T550 251V67Q550 54 550 45T553 31Q555 26 559 22T574 18Q611 18 641 45T692 110T724 191T736 264Q736 326 712 375T647 457T553 509T441 527Q369 527 303 499T187 423T106 310T76 172Q76 101 103 43T176 -56T284 -121T414 -144Q484 -144 550 -122T673 -54L686 -71ZM481 213Q476 206 473 201T462 194Q456 191 445 186T417 175Q397 166 384 159T362 144Q338 124 338 84Q338 52 354 33Q369 16 397 16Q423 16 440 28T472 65Q476 76 478 95T481 141V213ZM516 232Q516 293 510 316Q500 348 466 357Q474 350 481 343T490 328Q493 316 493 283L492 229V109Q490 57 508 34Q512 28 518 24L527 31Q526 32 526 33Q516 48 516 88V232ZM364 11Q302 29 302 83Q302 114 324 136Q331 141 340 147T360 161Q329 153 313 142Q277 121 277 83Q277 35 321 19Q334 13 364 11ZM347 342Q355 350 373 359Q362 355 354 351T338 343Q302 319 302 280Q302 257 321 257Q333 257 333 269V283Q333 289 333 293T332 301Q332 326 347 342Z"  />
<glyph unicode="A" horiz-adv-x="708" d="M-3 12H82L340 697H363L623 12H708V0H414V12H520L419 279H199L97 12H202V0H-3V12ZM414 293L308 570L203 293H414ZM572 12L333 637L314 586L533 12H572Z"  />
<glyph unicode="B" horiz-adv-x="637" d="M29 12H135V668H29V680H171Q183 680 207 680T268 682Q280 683 289 683T307 683Q355 683 390 677T452 658Q492 636 517 603Q543 567 543 522Q543 476 514 438Q470 379 374 370V366Q444 359 493 329Q574 279 574 189Q574 127 537 77Q491 19 402 4Q379 0 354 -2T298 -4Q289 -4 274 -4T235 -2Q207 -1 191 -1T168 0H29V12ZM230 12Q261 9 307 9Q381 9 417 39Q464 79 464 186Q464 297 415 337Q386 360 322 360H230V12ZM230 372H319Q381 372 407 403Q437 442 437 520Q437 601 397 641Q368 670 304 670Q293 670 275 670T230 668V372ZM182 12V668H147V12H182ZM369 670Q451 637 451 520Q451 488 446 463T432 418Q422 401 403 385Q435 397 454 419Q490 461 490 522Q490 581 454 626Q431 653 399 664Q394 666 387 667T369 670ZM403 353Q426 344 438 329Q477 285 477 193Q477 109 451 63Q432 32 389 11Q412 18 432 28T467 56Q519 111 519 191Q519 256 485 305Q457 343 403 353Z"  />
<glyph unicode="C" horiz-adv-x="690" d="M627 0Q612 20 583 20Q563 20 512 2Q487 -8 462 -12T408 -16Q282 -16 184 79Q74 187 74 341Q74 446 124 525Q156 575 204 619Q295 697 409 697Q450 697 483 688Q491 686 502 682T529 671Q557 660 573 660Q597 660 615 680H628V489H617Q606 557 568 610Q539 653 496 669Q460 685 408 685Q295 685 244 609Q209 556 197 487Q190 451 187 414T184 338Q184 154 245 68Q296 -3 405 -3Q536 -3 589 88Q613 127 631 203H642V0H627ZM255 643Q219 618 193 592Q135 532 109 467Q88 411 88 342Q88 154 260 34Q221 73 194 115Q170 150 158 183Q129 254 129 350Q129 479 188 564Q212 600 255 643ZM598 651Q586 647 572 647Q559 647 546 653Q560 641 573 625T598 585V651ZM611 96Q599 74 586 58T558 30Q564 32 570 32T583 32Q591 32 598 31T611 27V96Z"  />
<glyph unicode="D" horiz-adv-x="778" d="M29 12H135V668H29V680H160Q165 680 184 680T236 682Q268 683 288 683T319 684Q447 684 529 643Q606 604 648 541Q705 460 705 340Q705 201 625 109Q547 22 435 3Q385 -6 322 -6Q293 -6 235 -3Q188 0 160 0H29V12ZM230 12Q255 10 278 9T324 7Q437 7 498 59Q554 109 575 188Q595 260 595 336Q595 384 588 427T567 513Q532 615 440 651Q394 671 317 671Q282 671 230 668V12ZM182 12V668H147V12H182ZM471 25Q519 46 552 76Q602 124 626 192Q649 260 649 339Q649 474 590 557Q537 627 467 653Q480 646 490 640T507 626Q557 583 580 518Q608 434 608 336Q608 140 506 50Q501 45 492 39T471 25Z"  />
<glyph unicode="E" horiz-adv-x="672" d="M29 12H135V668H29V680H574V515H563Q521 673 390 668H230V370H307Q364 368 394 410Q418 443 432 512H442V215H432Q417 287 394 318Q375 347 345 353Q333 357 307 357H230V12H387Q441 12 473 25Q530 46 570 119Q581 141 589 163T601 209H611V0H29V12ZM182 12V668H147V12H182ZM543 668H465Q489 658 508 641T543 601V668ZM581 12V108Q561 74 536 51T478 12H581ZM412 414Q404 402 394 392T371 373Q365 370 359 368T346 364Q383 360 412 314V414Z"  />
<glyph unicode="F" horiz-adv-x="612" d="M29 12H135V668H29V680H574V515H563Q521 673 390 668H230V356H307Q363 355 394 396Q407 413 416 439T432 499H442V202H432Q424 237 415 262T394 305Q376 332 345 340Q333 344 307 344H230V12H336V0H29V12ZM182 12V668H147V12H182ZM543 668H465Q511 650 543 600V668ZM412 401Q404 389 394 379T371 360Q365 356 359 354T346 350Q383 346 412 301V401Z"  />
<glyph unicode="G" horiz-adv-x="760" d="M650 27Q634 46 614 46Q598 46 558 27Q533 15 516 7T488 -5Q450 -16 409 -16Q282 -16 183 80Q74 188 74 342Q74 449 123 526Q155 576 203 619Q296 697 409 697Q429 697 448 695T485 687Q503 682 528 671Q556 660 572 660Q596 660 614 680H627V489H616Q605 557 567 610Q516 685 407 685Q293 685 244 609Q208 557 196 487Q183 419 183 338Q183 154 244 68Q295 -3 400 -3Q503 -3 547 72Q571 112 571 180V244H448V257H739V244H663V27H650ZM531 27Q551 38 563 44T582 52Q597 56 618 58V244H584V180Q584 112 562 73Q545 42 515 18L531 27ZM254 643Q218 618 192 592Q134 534 108 467Q87 411 87 342Q87 154 259 34Q220 73 193 115Q182 132 173 149T157 183Q128 255 128 350Q128 479 187 565Q212 601 254 643ZM597 651Q585 647 571 647Q558 647 545 653Q573 631 597 586V651Z"  />
<glyph unicode="H" horiz-adv-x="778" d="M29 12H135V668H29V680H336V668H230V355H549V668H443V680H751V668H645V12H751V0H443V12H549V341H230V12H336V0H29V12ZM182 12V668H147V12H182ZM597 12V668H562V12H597Z"  />
<glyph unicode="I" horiz-adv-x="364" d="M29 12H135V668H29V680H336V668H230V12H336V0H29V12ZM182 12V668H147V12H182Z"  />
<glyph unicode="J" horiz-adv-x="443" d="M219 668H113V680H420V668H314V165Q314 123 308 96Q292 38 244 8Q225 -5 203 -10T155 -16Q85 -16 42 23Q13 50 13 92Q13 121 29 137Q44 154 74 154Q97 154 111 143Q126 132 126 112Q126 104 117 77Q114 66 112 57T110 38Q110 19 123 8Q137 -3 158 -3Q219 -3 219 80V668ZM266 668H231V80Q229 27 208 4Q237 20 252 59Q266 94 266 165V668ZM76 13Q62 36 62 53Q62 68 66 84Q68 96 69 104T71 116Q71 134 54 134Q43 134 36 125Q27 113 27 92Q27 60 46 38Q51 33 58 27T76 13Z"  />
<glyph unicode="K" horiz-adv-x="708" d="M29 12H135V668H29V680H329V668H230V362H240L530 668H429V680H627V668H549L306 411L651 12H715V0H440V12H525L238 350H230V12H329V0H29V12ZM182 12V668H147V12H182ZM588 12L277 379L252 353L541 12H588Z"  />
<glyph unicode="L" horiz-adv-x="654" d="M29 12H135V668H29V680H336V668H230V12H368Q437 12 473 26Q570 65 602 209H612V0H29V12ZM182 12V668H147V12H182ZM582 12V108Q563 74 537 51T478 12H582Z"  />
<glyph unicode="M" horiz-adv-x="831" d="M142 655V12H248V0H21V12H127V668H21V680H237L414 165L592 680H802V668H696V12H802V0H495V12H601V662L371 -2L142 655ZM648 12V668H613V12H648ZM391 98L194 668H155L371 40L391 98Z"  />
<glyph unicode="N" horiz-adv-x="690" d="M142 628V12H248V0H21V12H127V668H21V680H224L549 159V668H443V680H670V668H564V-15H545L142 628ZM549 82L180 668H142V657L549 6V82Z"  />
<glyph unicode="O" horiz-adv-x="813" d="M410 697Q531 697 630 599Q738 491 738 341Q738 186 628 79Q530 -16 406 -16Q281 -16 183 79Q74 187 74 340Q74 495 181 599Q243 655 304 679Q347 697 410 697ZM402 685Q293 685 244 609Q208 557 196 487Q189 451 186 414T183 338Q183 215 209 139Q240 47 308 15Q347 -3 406 -3Q517 -3 567 68Q628 154 628 335Q628 462 604 539Q572 633 504 666Q463 685 402 685ZM254 643Q218 618 192 592Q163 562 142 531T108 467Q97 439 92 408T86 342Q86 153 259 34Q220 73 193 115Q181 133 172 150T157 183Q128 258 128 350Q128 479 187 564Q211 600 254 643ZM558 643Q569 630 578 616T596 585Q641 498 641 339Q641 172 590 82Q577 58 558 34Q572 46 583 58T605 85Q683 193 683 339Q683 485 605 593Q594 607 583 619T558 643Z"  />
<glyph unicode="P" horiz-adv-x="617" d="M29 12H135V668H29V680H149L180 681H215Q244 682 262 682T289 683Q339 683 378 677T448 658Q501 638 531 602Q567 558 567 504Q567 442 520 395Q480 355 407 334Q359 322 306 322Q278 322 230 328V12H336V0H29V12ZM230 343Q270 334 304 334Q457 334 457 500Q457 613 395 651Q363 670 293 670Q281 670 266 670T230 668V343ZM182 12V668H147V12H182ZM408 658Q471 610 471 499Q471 393 405 347Q419 353 430 359T452 372Q515 421 515 504Q515 585 456 631Q446 639 434 645T408 658Z"  />
<glyph unicode="Q" horiz-adv-x="813" d="M675 -181Q546 -179 496 -156Q460 -139 431 -105Q423 -97 405 -70Q364 -14 326 -5Q302 3 283 10T248 28Q219 45 183 80Q74 188 74 341Q74 449 123 526Q155 576 203 619Q296 697 406 697Q532 697 630 599Q691 538 716 470Q738 414 738 341Q738 186 628 79Q530 -16 407 -16Q390 -16 369 -13L373 -17Q386 -26 395 -31T409 -40Q421 -47 432 -49T471 -53Q495 -55 514 -60T548 -73Q571 -85 597 -116Q608 -129 616 -137T629 -150Q657 -168 711 -170V-181H675ZM402 685Q293 685 244 609Q208 557 196 487Q189 451 186 414T183 338Q183 215 209 139Q240 47 308 15Q347 -3 406 -3Q517 -3 567 68Q628 154 628 335Q628 462 604 539Q572 633 504 666Q463 685 402 685ZM254 643Q218 618 192 592Q163 562 142 531T108 467Q97 439 92 408T86 342Q86 153 259 34Q220 73 193 115Q181 133 172 150T157 183Q128 258 128 350Q128 479 187 564Q211 600 254 643ZM558 643Q569 630 578 616T596 585Q641 498 641 339Q641 172 590 82Q577 58 558 34Q572 46 583 58T605 85Q683 193 683 339Q683 485 605 593Q594 607 583 619T558 643ZM634 -167Q616 -162 604 -160T586 -155Q573 -150 557 -139T520 -111Q493 -89 477 -79Q470 -76 460 -73T435 -65Q428 -63 422 -61T410 -54Q413 -59 416 -64T424 -74Q457 -123 501 -143Q545 -163 634 -167Z"  />
<glyph unicode="R" horiz-adv-x="689" d="M29 12H135V668H29V680H173Q178 680 194 680T237 681Q267 682 284 682T307 683Q402 683 453 656Q491 634 515 605Q542 567 542 523Q542 473 510 435Q481 398 426 382Q406 375 374 371V366Q474 355 526 299Q558 264 562 221Q562 213 563 195T565 150Q568 69 581 42Q596 9 632 9Q657 9 680 28L689 17Q681 11 673 6T656 -1Q634 -9 602 -9Q510 -9 483 58Q477 75 472 106T464 184Q462 213 459 235T453 272Q446 299 433 317T399 346Q373 360 326 360H230V12H336V0H29V12ZM315 372Q354 372 374 381Q409 396 426 443Q432 461 434 481T437 521Q437 601 396 641Q368 670 305 670Q290 670 272 670T230 668V372H315ZM182 12V668H147V12H182ZM375 668Q395 660 407 648Q450 607 450 518Q450 424 406 388Q439 401 458 425Q490 465 490 521Q490 584 455 627Q441 643 422 653T375 668ZM606 4Q556 14 534 53Q521 76 518 120Q517 126 517 142T514 184Q510 321 424 345Q444 331 459 296Q471 267 477 185Q480 117 489 84Q504 23 559 11Q569 9 580 7T606 4Z"  />
<glyph unicode="S" horiz-adv-x="637" d="M72 206H82Q100 121 141 65Q195 -3 304 -3Q382 -3 428 32Q442 43 452 57T470 89Q482 119 482 153Q482 234 421 268Q391 286 306 310Q269 321 244 328T205 342Q88 388 88 498Q88 560 122 609Q155 660 214 681Q235 689 256 693T301 697Q321 697 338 695T371 687Q376 685 387 681T417 668Q427 664 434 662T448 660Q466 660 477 680H489V507H478Q465 576 431 622Q405 656 371 671Q356 678 339 681T301 685Q232 685 184 648Q139 612 139 555Q139 488 203 451Q236 432 335 405Q368 396 391 389T429 377Q557 327 557 207Q557 139 512 77Q468 18 403 -3Q382 -9 357 -12T299 -16Q276 -16 257 -14T219 -8Q210 -6 195 -2T158 11Q131 21 114 21Q92 21 85 0H72V206ZM469 650Q460 647 450 647Q439 647 421 652Q439 637 450 620T469 583V650ZM84 22Q96 33 116 33Q133 33 153 26Q139 40 129 51T113 74Q105 85 99 97T84 126V22ZM460 45Q486 68 497 89Q520 129 520 181Q520 269 461 308Q447 317 431 324T394 338Q380 343 362 348T323 361Q232 389 202 403Q120 442 120 530Q120 551 126 573T145 621Q100 565 100 500Q100 419 164 377Q176 369 194 361T237 345Q244 343 262 337T310 323Q356 309 385 298T430 278Q495 242 495 151Q495 114 482 84Q475 67 460 45Z"  />
<glyph unicode="T" horiz-adv-x="654" d="M174 12H280V668H223Q90 671 47 506H36V680H618V506H607Q564 672 431 668H374V12H480V0H174V12ZM327 12V668H292V12H327ZM587 668H506Q556 646 587 594V668ZM49 594Q69 639 112 668H49V594Z"  />
<glyph unicode="U" horiz-adv-x="725" d="M129 668H23V680H330V668H224V194Q224 93 254 51Q291 -3 380 -3Q449 -3 499 27Q569 68 582 156Q584 172 585 193T586 244V668H480V680H708V668H602V244Q602 184 596 150Q579 60 506 16Q455 -16 370 -16Q282 -16 223 18Q153 59 137 137Q129 174 129 223V668ZM177 668H141V223Q141 123 181 72Q222 21 293 3Q248 29 222 60Q190 99 181 147Q179 158 178 174T177 211V668Z"  />
<glyph unicode="V" horiz-adv-x="690" d="M78 668H-9V680H286V668H180L393 108L604 668H499V680H705V668H618L362 -16H337L78 668ZM350 -4L368 43L130 668H91L347 -4H350Z"  />
<glyph unicode="W" horiz-adv-x="1026" d="M79 668H-8V680H282V668H180L380 113L507 466L435 668H354V680H642V668H537L736 113L937 668H835V680H1039V668H952L705 -16H681L516 444L349 -16H323L79 668ZM338 -4L354 42L131 668H92L331 -4H338ZM694 -4L711 44L487 668H448L689 -4H694Z"  />
<glyph unicode="X" horiz-adv-x="725" d="M27 12H117L309 332L106 668H27V680H311V668H220L372 416L526 668H435V680H632V668H541L381 403L619 12H698V0H412V12H503L317 319L135 12H226V0H27V12ZM561 12L163 668H119L516 12H561Z"  />
<glyph unicode="Y" horiz-adv-x="672" d="M194 12H300V287L85 668H-4V680H290V668H195L386 330L565 668H470V680H675V668H582L395 318V12H501V0H194V12ZM348 12V301L140 668H97L312 287V12H348Z"  />
<glyph unicode="Z" horiz-adv-x="621" d="M442 668H305Q155 674 113 514H102V680H557L157 12H362Q408 12 438 26Q495 53 531 123Q551 163 562 209H572V0H43L442 668ZM104 12L497 668H456L63 12H104ZM541 12V108Q506 43 438 12H541ZM115 596Q138 640 177 668H115V596Z"  />
<glyph unicode="[" horiz-adv-x="265" d="M117 680H236V662H137V-250H236V-268H117V680Z"  />
<glyph unicode="\" horiz-adv-x="283" d="M3 679L22 686L280 1L261 -6L3 679Z"  />
<glyph unicode="]" horiz-adv-x="265" d="M30 -250H129V662H30V680H149V-268H30V-250Z"  />
<glyph unicode="^" horiz-adv-x="566" d="M279 697H286L452 308H432L283 661L134 308H114L279 697Z"  />
<glyph unicode="_" horiz-adv-x="478" d="M0 -71H478V-101H0V-71Z"  />
<glyph unicode="`" horiz-adv-x="265" d="M18 644Q2 655 2 670Q2 685 14 694Q24 703 36 703Q49 703 60 691Q65 688 83 665L196 527H182L18 644ZM69 658Q45 688 31 688Q23 688 18 683Q12 677 12 670Q12 660 27 650L156 560L69 658Z"  />
<glyph unicode="a" horiz-adv-x="460" d="M457 12Q423 -11 385 -11Q332 -11 308 21Q303 29 299 39T292 64Q282 39 264 23Q227 -11 162 -11Q39 -11 39 82Q39 128 71 154Q95 174 155 191Q168 196 216 209Q250 219 263 227Q283 240 287 258Q292 275 292 311Q292 352 287 370Q273 410 217 410Q180 410 158 390Q146 378 146 357Q146 346 149 331Q152 313 152 306Q152 276 112 276Q68 276 68 315Q68 359 104 389Q144 422 218 422Q309 422 348 371Q364 349 368 323Q369 316 369 306T370 282V68Q370 36 374 25Q381 7 404 7Q426 7 449 24L457 12ZM290 237Q281 222 268 215Q253 206 215 192Q192 183 176 175T151 158Q123 133 123 87Q123 50 142 28Q159 8 192 8Q251 8 278 65Q290 92 290 155V237ZM331 261Q331 333 324 358Q311 395 272 406Q294 390 300 372Q305 355 305 319L303 256V117Q301 57 322 29Q344 1 382 1Q368 6 358 12T343 28Q331 43 331 92V261ZM154 2Q81 23 81 86Q81 123 107 147Q120 159 149 178Q132 173 119 168T94 156Q52 130 52 86Q52 30 103 11Q121 3 154 2ZM166 409Q153 404 143 399T123 389Q81 360 81 315Q81 289 103 289Q118 289 118 303Q118 305 118 308T117 319Q117 327 117 332T116 340Q116 370 134 388Q145 399 166 409Z"  />
<glyph unicode="b" horiz-adv-x="563" d="M29 12H103V676H29V689H184V324Q217 422 316 422Q394 422 453 365Q480 336 498 299Q519 252 519 205Q519 138 479 80Q444 26 385 1Q368 -7 350 -10T311 -14Q217 -14 184 83V0H29V12ZM313 410Q253 410 220 366Q199 341 193 303Q189 280 187 256T185 203Q185 120 198 85Q225 -1 311 -1Q375 -1 399 42Q425 91 425 211Q425 288 414 329Q402 378 371 396Q348 410 313 410ZM145 12V676H116V12H145ZM395 17Q473 86 473 204Q473 324 395 393Q416 368 423 342Q431 317 434 283T437 204Q437 159 434 125T423 67Q415 39 395 17Z"  />
<glyph unicode="c" horiz-adv-x="458" d="M425 105Q393 -14 259 -14Q175 -14 117 35Q44 96 44 197Q44 292 110 360Q172 422 263 422Q334 422 384 386Q419 360 419 315Q419 266 370 266Q324 266 324 298Q324 303 326 314T334 343Q337 353 337 363Q337 382 318 395Q297 410 256 410Q187 410 159 350Q138 299 138 196Q138 151 143 116T161 57Q189 0 266 0Q380 0 410 108L425 105ZM169 390Q56 322 56 202Q56 115 117 53Q145 28 183 9Q146 36 128 64Q92 119 92 202Q92 317 169 390ZM328 401Q350 388 350 364Q350 359 349 349T342 324Q336 306 336 300Q336 282 357 282Q380 282 380 317Q380 377 328 401Z"  />
<glyph unicode="d" horiz-adv-x="561" d="M383 0Q382 19 382 39T382 81V89Q351 -14 253 -14Q181 -14 122 36Q46 103 46 202Q46 269 83 327Q116 380 167 404Q204 422 248 422Q347 422 380 324V676H306V689H461V97Q462 71 462 50T464 12H536V0H383ZM139 213Q139 124 149 84Q163 31 195 12Q207 6 221 3T254 -1Q317 -1 348 45Q370 78 373 115Q379 152 379 201Q379 290 365 329Q335 410 247 410Q190 410 165 367Q157 353 152 337T144 301Q142 281 141 259T139 213ZM161 387Q135 367 121 353Q58 291 58 200Q58 83 169 17Q139 45 123 71Q94 123 94 203Q94 281 126 338Q132 349 140 361T161 387ZM425 12Q424 29 424 50T422 97V676H393V89V81Q393 61 393 44T395 12H425Z"  />
<glyph unicode="e" horiz-adv-x="478" d="M425 105Q393 -14 259 -14Q175 -14 117 35Q44 96 44 198Q44 294 110 360Q172 422 256 422Q314 422 359 392Q434 341 434 241V237H138V198Q138 103 161 57Q189 0 266 0Q380 0 410 108L425 105ZM337 251Q340 278 340 302Q340 359 321 384Q301 410 255 410Q187 410 159 350Q152 333 147 308T140 251H337ZM169 390Q56 322 56 202Q56 115 117 53Q145 28 183 9Q146 36 128 64Q92 119 92 203Q92 317 169 390ZM386 251Q386 287 372 329Q357 374 327 395Q338 382 345 364Q352 344 352 302Q352 290 352 277T350 251H386Z"  />
<glyph unicode="f" horiz-adv-x="308" d="M25 12H99V397H25V410H99V488Q99 534 111 566Q121 595 139 618T185 663Q232 697 285 697Q339 697 374 665Q400 640 400 607Q400 560 354 560Q311 560 311 591Q311 601 321 620Q326 629 328 636T330 649Q330 665 318 673Q302 684 280 684Q222 684 195 627Q180 597 180 518V410H299V397H180V12H267V0H25V12ZM141 12V488Q141 549 158 591Q171 625 195 654Q150 619 133 584Q122 564 117 540T112 488V12H141ZM330 678Q343 665 343 649Q343 636 329 608Q324 596 324 590Q324 572 346 572Q366 572 366 599Q366 630 347 660Q340 671 330 678Z"  />
<glyph unicode="g" horiz-adv-x="496" d="M288 49Q340 49 365 38Q404 23 425 -20Q440 -53 440 -88Q440 -161 378 -217Q315 -274 223 -274Q150 -274 99 -238Q53 -205 53 -158Q53 -107 104 -65Q116 -56 131 -48T166 -31Q110 -29 83 -16Q42 2 42 61Q42 111 81 144Q92 153 104 160T132 176Q77 212 77 279Q77 332 119 371Q176 422 247 422Q314 422 367 373Q401 422 450 422Q469 422 480 415Q500 405 500 380Q500 373 499 368T494 357Q483 345 467 345Q455 345 445 355Q443 357 440 363T433 378Q427 392 414 392Q400 392 376 366Q384 357 389 350T397 337Q412 311 412 279Q412 230 377 195Q325 143 244 143Q220 143 196 149T146 168Q133 162 123 157T105 145Q78 125 78 96Q78 65 109 54Q129 49 166 49H288ZM244 410Q200 410 176 384Q158 366 154 341Q152 328 151 314T149 283Q149 212 175 183Q198 157 247 157Q298 157 318 186Q340 216 340 281Q340 332 331 355Q310 410 244 410ZM185 -31Q172 -38 163 -45T145 -58Q115 -87 115 -138Q115 -190 144 -219Q181 -256 244 -256Q317 -256 362 -210Q397 -175 397 -126Q397 -92 380 -68Q362 -41 327 -33Q319 -32 308 -32T283 -31H185ZM171 393Q148 383 128 363Q90 325 90 280Q90 231 121 201Q139 185 171 170Q115 217 115 282Q115 328 138 360Q150 373 171 393ZM319 393Q326 387 330 381T339 367Q352 341 352 284Q352 222 336 194Q332 187 328 182T317 170Q377 212 377 284Q377 329 351 364Q339 381 319 393ZM132 -58Q65 -98 65 -155Q65 -204 115 -233Q129 -241 146 -247T184 -259Q167 -251 154 -244T130 -228Q86 -196 86 -146Q86 -117 106 -89Q111 -82 117 -75T132 -58ZM409 402Q413 403 417 403Q435 403 447 377Q456 359 463 359Q475 359 475 376Q475 389 466 400Q456 410 440 410Q428 410 409 402ZM66 106Q54 80 54 59Q54 8 96 -9Q126 -18 170 -18H283Q339 -18 369 -37Q390 -54 400 -79Q410 -102 410 -127Q410 -135 409 -144T405 -164Q418 -134 418 -106Q418 -73 404 -46Q395 -27 380 -15T346 4Q322 11 284 11H168Q142 11 123 13T91 23Q62 38 62 77Q62 90 66 106Z"  />
<glyph unicode="h" horiz-adv-x="585" d="M29 12H103V676H29V689H184V310Q202 347 225 371Q271 420 349 420Q427 420 466 374Q483 354 487 330Q491 318 491 285V12H565V0H335V12H410V300Q410 353 401 371Q386 406 334 406Q259 406 214 336Q184 291 184 229V12H259V0H29V12ZM145 12V676H116V12H145ZM452 12V285Q453 333 435 364Q413 404 371 410Q406 399 414 371Q422 347 422 300V12H452Z"  />
<glyph unicode="i" horiz-adv-x="283" d="M29 12H103V397H29V410H184V12H259V0H29V12ZM116 12H145V397H116V12ZM140 684Q161 684 178 667Q191 651 191 632Q191 611 174 594Q160 581 139 581Q117 581 101 598Q88 613 88 632Q88 655 105 670Q121 684 140 684ZM139 670Q130 670 120 666Q101 653 101 632Q101 610 120 599Q128 594 139 594V670Z"  />
<glyph unicode="j" horiz-adv-x="279" d="M103 397H29V410H184V-41Q184 -70 183 -92T180 -131Q169 -206 120 -248Q85 -278 41 -278Q-11 -278 -44 -245Q-67 -222 -67 -191Q-67 -170 -55 -158Q-45 -145 -23 -145Q12 -145 12 -176Q12 -183 9 -202Q6 -217 6 -227Q6 -265 46 -265Q83 -265 95 -226Q103 -199 103 -153V397ZM116 397V-153Q114 -228 97 -250Q116 -236 133 -181Q145 -141 145 -41V397H116ZM4 -261Q-26 -239 -26 -215Q-26 -207 -23 -192Q-20 -179 -20 -173Q-20 -159 -33 -159Q-53 -159 -53 -190Q-53 -236 4 -261ZM140 684Q161 684 178 667Q191 651 191 632Q191 611 174 594Q160 581 139 581Q117 581 101 598Q88 613 88 632Q88 655 105 670Q121 684 140 684ZM139 670Q130 670 120 666Q101 653 101 632Q101 610 120 599Q128 594 139 594V670Z"  />
<glyph unicode="k" horiz-adv-x="516" d="M29 12H103V676H29V689H184V232H195L385 397H317V410H465V397H408L259 268L470 12H512V0H295V12H365L195 219H184V12H237V0H29V12ZM145 12V676H116V12H145ZM419 12L230 244L206 223L379 12H419Z"  />
<glyph unicode="l" horiz-adv-x="283" d="M29 12H103V676H29V689H184V12H259V0H29V12ZM145 12V676H116V12H145Z"  />
<glyph unicode="m" horiz-adv-x="842" d="M29 12H103V314V333Q102 377 100 397H29V410H181Q182 390 182 365T182 308Q199 348 218 370Q259 420 335 420Q449 420 465 329Q475 346 484 360T505 384Q544 420 606 420Q653 420 689 402Q728 382 742 336Q748 315 748 277V12H822V0H592V12H667V320Q667 357 659 375Q645 406 596 406Q528 406 489 344Q466 306 466 250V12H541V0H310V12H384V320Q384 360 374 377Q360 406 318 406Q247 406 206 329Q184 285 184 225V12H258V0H29V12ZM145 12V308Q144 343 144 365T143 397H113Q114 388 114 378T115 357Q115 337 116 333V314V12H145ZM427 12V286Q428 332 411 364Q386 405 345 410Q379 399 389 371Q392 360 394 343T396 300V12H427ZM709 12V286Q710 333 692 364Q670 404 627 410Q644 405 655 396T671 371Q679 349 679 300V12H709Z"  />
<glyph unicode="n" horiz-adv-x="585" d="M29 12H103V314V333Q102 377 100 397H29V410H181Q182 389 182 364T182 308Q205 350 225 371Q271 420 349 420Q427 420 466 374Q483 354 487 330Q491 318 491 286V12H565V0H335V12H410V300Q410 353 401 371Q386 406 334 406Q259 406 214 336Q184 291 184 229V12H259V0H29V12ZM145 12V308Q144 343 144 365T143 397H113Q114 388 114 378T115 357Q115 337 116 333V314V12H145ZM452 12V286Q453 333 435 364Q413 404 371 410Q406 399 414 371Q422 349 422 300V12H452Z"  />
<glyph unicode="o" horiz-adv-x="532" d="M268 422Q341 422 409 365Q487 297 487 203Q487 110 408 42Q343 -14 266 -14Q187 -14 123 39Q91 67 69 107Q44 155 44 204Q44 298 123 365Q190 422 268 422ZM264 410Q197 410 167 360Q138 312 138 209Q138 100 166 50Q193 -1 265 -1Q338 -1 365 50Q393 100 393 207Q393 312 364 360Q334 410 264 410ZM171 385Q139 365 120 347Q57 285 57 203Q57 143 94 89Q127 41 185 13Q149 41 130 67Q93 120 93 202Q93 277 127 332Q140 354 171 385ZM362 385Q382 359 391 333Q399 309 403 279T407 210Q407 119 386 68Q376 43 348 13Q379 35 395 58Q441 122 441 205Q441 286 398 347Q392 356 383 365T362 385Z"  />
<glyph unicode="p" horiz-adv-x="563" d="M29 -256H103V314V333Q102 377 100 397H29V410H181Q182 390 182 368T182 320Q190 340 199 355T219 381Q254 422 317 422Q384 422 444 368Q519 300 519 205Q519 110 453 43Q394 -14 316 -14Q217 -14 184 84V-256H259V-268H29V-256ZM182 209Q182 94 219 43Q250 -1 314 -1Q375 -1 399 42Q415 72 420 108Q422 129 423 151T425 199Q425 285 418 317Q400 410 313 410Q256 410 220 363Q208 348 201 332T190 297Q186 277 184 256T182 209ZM395 392Q416 367 423 341Q431 316 434 282T437 203Q437 158 434 124T423 66Q416 40 395 16Q473 85 473 203Q473 321 395 392ZM145 -256V397H113Q114 388 114 378T115 357Q115 337 116 333V314V-256H145Z"  />
<glyph unicode="q" horiz-adv-x="563" d="M306 -256H380V84Q347 -14 248 -14Q169 -14 113 41Q83 70 66 109Q46 154 46 201Q46 268 86 327Q106 355 128 375T180 407Q214 422 253 422Q347 422 380 325V410H536V397H461V-256H536V-268H306V-256ZM144 295Q142 272 141 247T139 195Q139 121 150 80Q163 32 194 12Q217 -1 250 -1Q313 -1 345 43Q367 71 371 106Q375 129 377 153T379 207Q379 286 367 324Q340 410 251 410Q190 410 165 367Q157 352 152 334T144 295ZM166 17Q153 31 144 42T128 64Q94 119 94 204Q94 271 117 320Q131 352 160 382Q130 362 108 334Q58 275 58 201Q58 169 66 141T92 87Q118 46 166 17ZM422 -256V397H393V-256H422Z"  />
<glyph unicode="r" horiz-adv-x="391" d="M29 12H103V314V333Q102 377 100 397H29V410H181Q182 392 182 371T182 327V312Q203 362 224 386Q257 420 307 420Q356 420 380 389Q388 378 391 366T395 339Q395 288 347 288Q331 288 317 296Q306 303 306 317Q306 325 313 343Q318 356 318 368Q318 403 286 403Q246 403 214 347Q195 311 188 276Q186 267 185 254T184 223V12H267V0H29V12ZM145 12V308Q144 343 144 365T143 397H113Q114 388 114 378T115 357Q115 337 116 333V314V12H145ZM303 410Q330 393 330 369Q330 363 329 355T322 334Q318 326 318 319Q318 301 340 301Q362 301 362 336Q362 390 303 410Z"  />
<glyph unicode="s" horiz-adv-x="407" d="M53 134H64Q107 -1 210 -1Q248 -1 270 19Q294 40 294 79Q294 111 276 129Q269 136 254 143T216 159Q210 161 195 166T157 179Q113 194 91 214Q61 241 61 294Q61 353 106 391Q144 422 200 422Q232 422 268 407Q281 401 289 401Q299 401 307 410H318V301H307Q293 347 275 371Q246 409 197 409Q160 409 132 390Q103 369 103 334Q103 292 149 271Q158 267 176 261T222 247Q251 239 270 232T303 218Q361 190 361 122Q361 65 317 25Q273 -14 209 -14Q191 -14 170 -10T124 4Q110 9 102 11T88 13Q74 13 64 0H53V134ZM302 391Q294 389 290 389Q282 389 266 396Q288 379 302 350V391ZM66 17Q79 25 91 25Q101 25 116 19Q100 29 82 56Q77 64 74 71T66 86V17ZM283 13Q325 50 325 102Q325 139 303 163Q288 180 228 201Q221 203 207 208T169 221Q125 235 103 259Q84 281 84 312Q84 331 95 359Q74 329 74 293Q74 232 122 207Q141 198 195 180Q224 170 243 163T271 149Q307 128 307 79Q307 41 283 13Z"  />
<glyph unicode="t" horiz-adv-x="327" d="M331 79Q322 42 308 24Q301 14 293 8T275 -2Q255 -11 221 -11Q147 -11 117 30Q104 44 101 71Q100 77 100 87T99 112V397H25V410H99V534Q109 530 117 528T135 526Q159 526 180 541V410H316V397H180V79Q180 43 187 30Q200 4 237 4Q279 4 301 38Q306 46 309 57T317 83L331 79ZM141 514H127Q121 514 112 517V112Q112 67 120 48Q139 9 202 2Q169 16 157 33Q141 55 141 103V514Z"  />
<glyph unicode="u" horiz-adv-x="566" d="M390 0Q389 20 389 45T389 101Q340 -14 239 -14Q193 -14 158 5Q116 26 103 63Q95 87 95 124V397H21V410H177V118Q177 88 179 68T189 34Q207 0 251 0Q317 0 359 73Q387 121 387 187V397H312V410H468V95V76Q469 33 471 12H542V0H390ZM138 397H108V124Q108 81 121 53Q137 25 188 6Q162 18 153 32Q138 50 138 110V397ZM432 12Q430 33 429 76V95V397H399V181Q399 176 399 160T400 117L401 83V51L402 22V12H432Z"  />
<glyph unicode="v" horiz-adv-x="459" d="M60 397H-7V410H227V397H148L271 96L401 397H321V410H467V397H416L235 -26L60 397ZM250 46L105 397H73L234 7L250 46Z"  />
<glyph unicode="w" horiz-adv-x="708" d="M61 397H-5V410H226V397H147L254 98L352 333L329 397H289V410H479V397H415L526 100L645 397H555V410H711V397H661L490 -32L360 315L214 -32L61 397ZM230 44L104 397H74L214 5L230 44ZM504 45L372 397H342L488 6L504 45Z"  />
<glyph unicode="x" horiz-adv-x="459" d="M14 12H66L195 186L53 397H0V410H223V397H148L246 252L350 397H280V410H420V397H369L255 239L412 12H465V0H241V12H316L203 174L84 12H155V0H14V12ZM366 12L102 397H68L330 12H366Z"  />
<glyph unicode="y" horiz-adv-x="459" d="M60 397H-7V410H227V397H148L271 96L401 397H321V410H467V397H416L277 72Q263 40 249 3T218 -76Q176 -188 153 -224Q133 -258 111 -268Q92 -278 65 -278Q24 -278 0 -257Q-23 -236 -23 -204Q-23 -157 26 -157Q45 -157 55 -164Q69 -173 69 -188Q69 -197 55 -228Q52 -239 52 -244Q52 -263 76 -263Q106 -263 126 -237Q137 -223 149 -202T173 -149Q185 -121 198 -88T226 -13L60 397ZM249 42L105 397H73L233 3L249 42ZM49 -265Q25 -255 25 -230Q25 -225 28 -201Q29 -197 29 -191Q29 -175 11 -175Q-11 -175 -11 -204Q-11 -251 49 -265Z"  />
<glyph unicode="z" horiz-adv-x="407" d="M272 397H167Q130 397 113 383Q87 365 63 303H56L69 410H372L134 12H263Q300 12 320 29Q351 52 372 124H380L368 0H34L272 397ZM89 12L319 397H286L56 12H89ZM355 12L360 60Q347 32 320 12H355ZM74 353Q81 367 90 378T114 397H80L74 353Z"  />
<glyph unicode="{" horiz-adv-x="353" d="M322 -268Q233 -265 194 -211Q183 -196 176 -180T167 -146Q165 -129 164 -105T163 -50V53Q163 82 160 104T148 141Q123 185 32 203V208Q78 218 107 232Q145 252 157 290Q163 317 163 358V460Q163 492 164 516T167 558Q188 675 322 680V662Q242 660 209 613Q187 580 184 529Q183 522 183 512T183 488V414Q183 330 180 308Q179 286 166 264Q139 214 59 205Q98 202 127 186Q178 155 181 87Q182 76 182 54T183 -2V-76Q183 -99 184 -118T188 -151Q208 -249 322 -250V-268Z"  />
<glyph unicode="|" horiz-adv-x="500" d="M240 751H261V-204H240V751Z"  />
<glyph unicode="}" horiz-adv-x="353" d="M32 -250Q110 -249 145 -202Q156 -185 162 -165T170 -117Q171 -110 171 -100T171 -76V-2Q171 30 171 52T173 87Q177 195 295 205Q214 214 188 264Q174 290 173 325Q172 336 172 358T171 414V488Q171 511 170 529T166 562Q146 660 32 662V680Q123 676 160 622Q183 592 187 558Q189 541 190 517T191 460V358Q191 300 206 270Q232 228 322 208V203Q223 184 202 132Q191 104 191 53V-50Q191 -81 190 -105T187 -146Q166 -263 32 -268V-250Z"  />
<glyph unicode="~" horiz-adv-x="566" d="M15 155Q28 199 42 222Q79 283 146 283Q176 283 230 263L349 218Q376 207 395 202T427 197Q498 197 534 306H552Q544 282 536 264T520 232Q484 177 423 177Q409 177 389 182T341 198L223 243Q172 263 140 263Q90 263 58 214Q47 198 33 155H15Z"  />
<glyph unicode="&#xA0;" horiz-adv-x="247" />
<glyph unicode="&#xA1;" horiz-adv-x="301" d="M152 420Q174 420 189 403Q202 389 202 370Q202 347 185 331Q170 318 151 318Q128 318 113 335Q99 351 99 370Q99 390 117 407Q132 420 152 420ZM151 408Q140 407 132 402Q113 392 113 369Q113 346 132 336Q140 331 151 330V408ZM143 240H159L195 -224Q196 -231 196 -236T196 -244Q196 -263 181 -276Q170 -287 151 -287Q130 -287 117 -273Q106 -260 106 -244Q106 -241 106 -236T107 -224L143 240ZM151 168L119 -225Q118 -233 118 -238T118 -244Q118 -262 135 -271Q140 -275 151 -275V168Z"  />
<glyph unicode="&#xA2;" horiz-adv-x="637" d="M199 -75L234 12Q128 73 128 197Q128 294 194 360Q256 422 347 422Q358 422 369 421T395 417L426 494L438 489L409 414Q444 404 468 386Q503 358 503 315Q503 266 454 266Q408 266 408 298Q408 303 410 314T418 343Q421 353 421 362Q421 383 401 395L258 37Q292 0 351 0Q464 0 494 108L509 105Q477 -14 343 -14Q317 -14 293 -9T245 7L211 -79L199 -75ZM389 402Q362 410 340 410Q271 410 244 350Q222 300 222 194Q222 100 249 51L389 402ZM253 390Q140 322 140 202Q140 115 202 53Q228 28 267 9Q230 36 212 64Q176 119 176 202Q176 316 253 390ZM412 401Q435 387 435 364Q435 354 426 324Q420 306 420 300Q420 282 441 282Q464 282 464 317Q464 377 412 401Z"  />
<glyph unicode="&#xA3;" horiz-adv-x="637" d="M249 92Q252 113 252 126Q252 176 226 241Q221 256 213 275T196 320Q190 334 186 343T180 358H80V372H175Q149 441 149 484Q149 560 202 622Q262 694 352 694Q426 694 469 654Q499 627 499 586Q499 531 451 531Q410 531 410 565Q410 578 419 598Q430 623 430 634Q430 652 411 666Q387 681 354 681Q295 681 270 640Q244 598 244 499Q244 467 245 436T249 372H415V358H250Q251 352 253 331T258 271Q263 220 264 192T266 156Q266 139 265 123T260 90Q306 81 345 77T417 73Q486 73 509 95Q520 103 532 134L543 130Q497 -14 400 -14Q348 -14 299 22Q278 37 266 45T249 58Q241 47 234 39T221 23Q191 -2 157 -2Q128 -2 109 11Q89 27 89 51Q89 77 112 93Q131 105 159 105Q175 105 236 94L249 92ZM239 65Q192 94 159 94Q134 94 117 81Q102 70 102 52Q102 33 118 20Q131 11 156 11Q190 11 211 31Q218 36 224 44T239 65ZM237 81Q245 77 256 73T280 62Q298 54 310 49T331 39Q367 28 401 28Q447 28 475 49Q481 54 487 59T499 73Q485 66 465 63T415 59Q382 59 338 64T237 81ZM251 210Q247 231 241 260T225 327Q198 439 198 500Q198 582 234 626Q248 643 273 664Q236 644 212 614Q161 551 161 485Q161 463 168 435T189 370Q193 362 203 335T232 262Q239 247 243 234T251 210ZM432 665Q442 648 442 634Q442 618 430 593Q422 575 422 565Q422 546 440 546Q460 546 460 584Q460 637 432 665Z"  />
<glyph unicode="&#xA4;" horiz-adv-x="637" d="M114 149L175 210Q125 268 125 341Q125 403 162 456Q167 461 175 472L114 533L127 545L188 484Q245 535 318 535Q392 535 449 484L510 545L523 533L462 472Q512 414 512 341Q512 266 462 210L523 149L510 137L449 198Q395 147 318 147Q249 147 188 198L127 137L114 149ZM316 515Q241 515 190 457Q145 407 145 341Q145 263 202 212Q251 167 318 167Q396 167 447 224Q492 275 492 342Q492 417 435 470Q384 515 316 515Z"  />
<glyph unicode="&#xA5;" horiz-adv-x="637" d="M198 12H283V287H108V302H279L231 407H108V421H225L115 668H48V680H294V668H212L364 316L500 668H426V680H589V668H517L422 421H544V407H416L375 302H544V287H374V12H459V0H198V12ZM329 12V301L169 668H128L295 293V12H329Z"  />
<glyph unicode="&#xA6;" horiz-adv-x="500" d="M240 154H261V-85H240V154ZM240 631H261V393H240V631Z"  />
<glyph unicode="&#xA7;" horiz-adv-x="496" d="M147 91Q53 148 53 244Q53 345 150 403Q88 459 88 528Q88 576 117 617Q146 661 197 682Q233 697 275 697Q347 697 389 658Q417 631 417 591Q417 539 372 539Q333 539 333 573Q333 583 341 604Q350 625 350 635Q350 685 272 685Q229 685 199 664Q175 648 162 624Q148 596 148 568Q148 495 231 445L360 367Q442 315 442 229Q442 140 345 64Q424 2 424 -79Q424 -128 394 -176Q337 -266 229 -266Q145 -266 96 -222Q64 -191 64 -145Q64 -96 111 -96Q153 -96 153 -129Q153 -143 143 -163Q134 -183 134 -193Q134 -216 158 -232Q173 -243 191 -248T234 -254Q288 -254 321 -222Q364 -183 364 -119Q364 -72 335 -37Q310 -8 269 16L147 91ZM160 394Q86 350 86 290Q86 223 168 173L292 98Q303 92 313 86T334 73Q363 94 377 112Q401 142 401 183Q401 220 382 247Q367 267 336 286L202 367Q191 373 181 380T160 394ZM162 647Q100 597 100 529Q100 473 140 430Q152 418 169 405T209 377L334 302Q376 276 393 255Q414 226 414 186V170Q416 184 417 197T418 225Q418 270 392 296Q373 313 333 338L206 416Q186 430 171 443T145 472Q134 490 129 510T123 556Q123 596 144 626Q150 635 162 647ZM74 295Q65 269 65 244Q65 156 154 102L276 28Q319 1 345 -29Q376 -66 376 -119Q376 -166 348 -212Q368 -189 378 -163Q387 -144 391 -125T395 -87Q395 -27 348 15Q327 33 276 64L152 138Q73 186 73 272Q73 277 73 282T74 295ZM144 -238Q107 -214 107 -185Q107 -175 112 -155Q116 -138 116 -131Q116 -116 99 -116Q76 -116 76 -145Q76 -206 144 -238ZM351 668Q363 653 363 635Q363 622 353 599Q347 581 347 572Q347 554 364 554Q382 554 382 585Q382 635 351 668Z"  />
<glyph unicode="&#xA8;" horiz-adv-x="265" d="M45 633Q62 633 75 620T88 589Q88 570 75 558T44 545Q26 545 13 557T0 589Q0 608 13 620T45 633ZM44 620Q30 620 21 611T12 589Q12 575 21 567T44 557V620ZM222 633Q239 633 252 620T265 589Q265 570 252 558T221 545Q203 545 190 557T177 589Q177 608 190 620T222 633ZM221 620Q207 620 198 611T189 589Q189 575 198 567T221 557V620Z"  />
<glyph unicode="&#xA9;" horiz-adv-x="796" d="M404 697Q476 697 539 668T650 591T725 478T753 342Q753 269 725 204T649 91T536 14T398 -14Q324 -14 259 14T146 91T70 205T42 344Q42 419 71 483T150 595T265 670T404 697ZM393 677Q325 677 265 650T160 577T89 470T62 342Q62 273 88 212T161 105T267 33T397 6Q467 6 528 32T635 105T707 212T733 344Q733 413 706 473T633 579T525 651T393 677ZM523 166Q514 177 499 177Q494 177 485 175T461 167Q447 162 433 160T405 157Q336 157 283 209Q223 269 223 351Q223 406 251 450Q268 477 295 501Q344 543 405 543Q427 543 445 538Q452 537 470 529Q485 523 494 523Q505 523 516 534H523V431H517Q513 465 490 495Q483 507 474 515T452 529Q431 537 405 537Q343 537 316 495Q296 463 290 425T283 348Q283 299 291 263T316 203Q344 164 404 164Q473 164 502 214Q517 235 524 276H531V166H523ZM322 513Q296 497 275 471T243 419Q231 387 231 352Q231 249 325 185Q308 201 293 222T270 264Q253 302 253 359Q253 408 270 444T322 513ZM508 518Q503 516 500 516T493 516Q490 516 486 517T479 520Q494 506 508 482V518ZM515 218Q508 207 501 197T485 182Q489 184 492 184T499 184Q507 184 515 180V218Z"  />
<glyph unicode="&#xAA;" horiz-adv-x="292" d="M290 443Q267 428 243 428Q194 428 182 467Q178 459 174 455T166 446Q145 428 103 428Q25 428 25 485Q25 520 56 536Q64 540 84 546T136 562Q163 568 173 579Q181 587 181 619Q181 654 171 664Q158 674 137 674Q96 674 96 646Q96 643 96 640T97 631Q98 626 98 622T99 616Q99 596 73 596Q43 596 43 622Q43 648 66 668Q92 688 138 688Q196 688 222 657Q235 637 235 602V477Q235 455 239 450Q243 443 254 443Q266 443 283 454L290 443ZM180 568Q169 559 138 547Q101 534 93 522Q82 509 82 488Q82 443 122 443Q156 443 173 476Q180 490 180 527V568ZM209 602Q209 636 199 653Q190 666 179 671Q192 658 192 623L191 582V527Q191 507 191 495T193 477Q196 442 235 438Q227 442 223 447T214 457Q209 469 209 499V602ZM100 437Q54 454 54 488Q54 512 74 526Q78 530 85 533T101 541Q89 537 80 534T62 527Q35 513 35 485Q35 440 100 437ZM95 670Q75 665 62 647Q53 635 53 623Q53 609 66 609Q75 609 75 618Q75 619 75 621T74 627V640Q74 660 95 670Z"  />
<glyph unicode="&#xAB;" horiz-adv-x="389" d="M199 68Q135 80 104 103Q54 139 54 203Q54 274 113 309Q141 327 199 338L201 327Q113 305 113 203Q113 101 201 79L199 68ZM134 102Q116 120 106 138Q98 153 95 169T91 203Q91 257 122 292L138 308Q67 276 67 203Q67 128 138 98L134 102ZM327 68Q264 80 233 103Q183 139 183 203Q183 275 242 309Q271 328 327 338L329 327Q242 304 242 203Q242 101 329 79L327 68ZM263 102Q242 123 235 138Q227 153 224 169T220 203Q220 257 251 292L266 308Q196 276 196 203Q196 128 266 98L263 102Z"  />
<glyph unicode="&#xAC;" horiz-adv-x="566" d="M492 308H53V326H512V133H492V308Z"  />
<glyph unicode="&#xAD;" horiz-adv-x="353" d="M88 237H265V173H88V237ZM233 203V224H100V203H233Z"  />
<glyph unicode="&#xAE;" horiz-adv-x="434" d="M219 685Q255 685 286 671T340 632T377 577T391 510Q391 474 378 443T340 388T284 350T216 336Q180 336 148 350T93 387T56 443T42 511Q42 548 56 579T95 634T151 671T219 685ZM214 675Q181 675 152 662T100 626T64 573T51 510Q51 476 64 447T99 395T152 359T216 346Q250 346 280 359T333 394T368 447T381 511Q381 545 368 575T332 627T279 662T214 675ZM138 427H167V601H138V604H177H194Q202 605 206 605T212 605Q226 605 235 603T251 597Q263 590 268 584Q275 574 275 563Q275 547 266 539Q261 531 252 528T231 522V521Q244 519 254 515T271 502Q278 495 280 482Q280 480 280 476T281 463Q283 441 285 434Q290 426 298 426Q304 426 312 431L314 428Q308 424 305 423Q302 422 299 422T291 421Q266 421 259 439Q257 444 257 452T254 473Q254 487 251 495Q246 510 239 514T217 518H192V427H221V424H138V427ZM214 523Q225 523 231 525Q239 528 244 541Q247 550 247 562Q247 584 237 593Q232 598 226 599T212 601H192V523H214ZM180 427V601H170V427H180ZM231 601Q237 598 239 595Q250 585 250 561Q250 535 239 527Q244 529 247 531T253 536Q261 545 261 562Q261 579 252 590Q244 598 231 601ZM292 425Q280 426 273 437Q271 440 270 445T268 455V473Q266 491 261 501T244 517Q246 513 248 510T253 502Q256 496 258 473Q259 463 259 457T261 446Q265 431 279 426Q283 425 292 425Z"  />
<glyph unicode="&#xAF;" horiz-adv-x="265" d="M-2 605H266V575H-2V605ZM254 582V598H5V582H254Z"  />
<glyph unicode="&#xB0;" horiz-adv-x="371" d="M188 697Q243 697 282 654Q315 618 315 568Q315 512 272 473Q233 439 186 439Q130 439 90 482Q56 519 56 569Q56 624 99 664Q135 697 188 697ZM184 677Q137 677 104 641Q76 610 76 568Q76 521 113 487Q146 459 186 459Q233 459 267 496Q295 525 295 569Q295 616 259 649Q230 677 184 677Z"  />
<glyph unicode="&#xB1;" horiz-adv-x="566" d="M272 250H53V268H272V458H292V268H512V250H292V63H272V250ZM53 18H512V0H53V18Z"  />
<glyph unicode="&#xB2;" horiz-adv-x="318" d="M10 283Q54 317 88 347T146 407Q186 454 202 499Q215 536 215 576Q215 675 142 675Q111 675 91 658Q78 646 78 631Q78 624 84 605Q86 601 86 596Q86 575 59 575Q27 575 27 605Q27 632 49 653Q85 689 146 689Q205 689 244 650Q278 614 278 570Q278 520 223 456Q192 418 87 328L81 322H207Q241 322 257 336Q270 350 274 379H286V272H10V283ZM261 322Q245 309 208 309H67L47 294H261V322ZM163 409Q206 456 222 483Q249 532 249 571Q249 613 227 642Q215 660 195 669Q227 644 227 578Q227 549 222 523T203 473Q197 459 187 444T163 409ZM85 668Q70 660 58 648Q39 627 39 607Q39 589 54 589Q63 589 63 599Q63 601 63 603T61 611Q60 615 60 618T59 625Q59 642 85 668Z"  />
<glyph unicode="&#xB3;" horiz-adv-x="318" d="M33 359Q51 276 136 276Q177 276 198 299Q222 326 222 392Q222 452 199 477Q179 495 146 495Q112 495 74 473L66 486Q87 497 127 508Q171 519 190 542Q210 565 210 609Q210 675 151 675Q125 675 108 664Q93 654 93 636Q93 632 94 628T97 618Q103 604 103 599Q103 580 75 580Q46 580 46 606Q46 636 72 659Q105 689 157 689Q206 689 238 663Q270 637 270 600Q270 555 216 525Q209 521 197 517T167 506Q197 501 224 485Q285 451 285 394Q285 342 244 303Q202 264 138 264Q73 264 40 307Q25 326 19 357L33 359ZM200 286Q208 291 215 297T229 312Q256 348 256 393Q256 449 210 482Q234 455 234 393Q234 316 200 286ZM187 523Q244 555 244 602Q244 633 221 658Q213 666 200 671Q223 654 223 610Q223 571 210 549Q206 543 201 537T187 523ZM91 662Q58 638 58 608Q58 593 72 593Q81 593 81 602Q81 603 81 606T79 614Q78 619 78 623T77 630Q77 642 91 662Z"  />
<glyph unicode="&#xB4;" horiz-adv-x="265" d="M206 665Q217 677 223 684T231 694Q241 703 253 703Q264 703 275 694Q287 686 287 670Q287 654 271 644L106 527H94L206 665ZM256 649Q270 660 270 670Q270 678 265 683Q260 688 252 688Q238 688 214 658L134 560L256 649Z"  />
<glyph unicode="&#xB5;" horiz-adv-x="570" d="M99 397H25V410H180V118Q180 59 193 34Q209 0 255 0Q321 0 363 73Q391 121 391 187V397H316V410H472V95V76Q473 33 475 12H546V0H393V101Q344 -14 251 -14Q212 -14 180 14V-268H99V397ZM141 -256V397H112V-256H141ZM433 397H403V181Q403 176 403 160T404 117L405 83V51L406 22V12H435Q435 23 435 38T433 76V95V397Z"  />
<glyph unicode="&#xB6;" horiz-adv-x="566" d="M285 -164V293Q234 293 187 305T104 342T46 405T24 498Q24 556 48 594T111 655T199 687T300 697H543V685H469V-164H543V-176H211V-164H285ZM300 -164H373V685H300V-164ZM386 -164H421V685H386V-164Z"  />
<glyph unicode="&#xB7;" horiz-adv-x="265" d="M134 304Q154 304 171 286Q184 273 184 253Q184 229 167 215Q154 202 133 202Q109 202 95 219Q81 233 81 253Q81 275 98 290Q114 304 134 304ZM133 291Q121 289 114 286Q95 276 95 252Q95 229 114 220Q120 216 133 214V291Z"  />
<glyph unicode="&#xB8;" horiz-adv-x="265" d="M92 -193Q127 -216 154 -216Q203 -216 203 -145Q203 -78 159 -78Q142 -78 121 -90L108 -75L178 0H197L130 -72Q155 -58 180 -58Q207 -58 229 -75Q258 -101 258 -140Q258 -179 230 -205Q201 -232 159 -232Q125 -232 84 -203L92 -193ZM146 -72Q150 -71 153 -71T159 -71Q217 -71 217 -144Q217 -223 154 -223Q142 -223 120 -217Q140 -225 159 -225Q195 -225 221 -201Q244 -175 244 -140Q244 -104 220 -81Q201 -65 179 -65Q163 -65 146 -72Z"  />
<glyph unicode="&#xB9;" horiz-adv-x="318" d="M76 285H142V636Q125 625 104 613T56 589L49 601Q141 648 181 689H198V285H264V272H76V285ZM173 285V661Q165 653 155 646V285H173Z"  />
<glyph unicode="&#xBA;" horiz-adv-x="336" d="M169 688Q215 688 258 653Q308 612 308 557Q308 501 258 459Q216 426 168 426Q117 426 77 457Q55 475 43 499Q35 513 32 527T28 557Q28 614 77 653Q121 688 169 688ZM167 674Q131 674 114 653Q91 627 91 559Q91 482 115 458Q133 438 167 438Q203 438 223 461Q244 486 244 560Q244 629 220 655Q201 674 167 674ZM112 664Q38 620 38 557Q38 509 77 472Q84 466 92 460T111 449Q95 460 87 472Q60 505 60 558Q60 605 86 639Q95 652 112 664ZM225 665Q231 657 235 651T243 638Q255 609 255 558Q255 483 226 449Q277 491 277 556Q277 622 225 665Z"  />
<glyph unicode="&#xBB;" horiz-adv-x="389" d="M60 79Q148 102 148 203Q148 304 60 327L62 338Q128 324 157 304Q206 268 206 203Q206 132 148 96Q116 77 62 68L60 79ZM123 98Q184 128 184 203Q184 277 123 308Q160 268 160 203Q160 136 123 98ZM189 79Q276 101 276 203Q276 304 189 327L191 338Q255 325 286 304Q335 268 335 203Q335 132 277 96Q245 77 191 68L189 79ZM252 98Q312 128 312 203Q312 276 252 308Q289 268 289 203Q289 138 252 98Z"  />
<glyph unicode="&#xBC;" horiz-adv-x="708" d="M76 285H142V636Q125 625 104 613T56 589L49 601Q141 648 181 689H198V285H264V272H76V285ZM155 285H173V661Q165 653 155 646V285ZM163 -6L526 694L544 686L180 -14L163 -6ZM606 416Q634 416 634 401Q634 396 617 379Q557 327 500 252Q480 226 459 192T414 114H562V265H618V114H670V98H618V12H670V0H510V12H562V98H393Q417 155 463 238Q491 289 519 329T573 402Q583 414 591 414Q601 416 606 416ZM575 253V12H593V253H575ZM474 234Q493 260 506 277T526 304Q541 323 559 343T600 386Q613 399 613 401Q613 406 604 406Q593 406 589 402Q581 396 565 376T525 318Q501 282 474 234Z"  />
<glyph unicode="&#xBD;" horiz-adv-x="708" d="M76 285H142V636Q125 625 104 613T56 589L49 601Q141 648 181 689H198V285H264V272H76V285ZM155 285H173V661Q165 653 155 646V285ZM163 -6L526 694L544 686L180 -14L163 -6ZM532 404Q501 404 480 386Q468 375 468 360Q468 353 474 334Q476 328 476 324Q476 303 449 303Q416 303 416 333Q416 357 438 381Q473 416 536 416Q595 416 633 378Q668 343 668 298Q668 249 613 185Q596 165 562 133T477 56L471 51H597Q633 51 647 65Q660 79 664 108H675V0H399V11Q439 40 473 71T536 136Q576 184 591 227Q605 264 605 305Q605 404 532 404ZM650 22V51Q636 38 598 38H456L436 22H650ZM553 138Q574 161 588 179T611 212Q639 262 639 300Q639 339 617 370Q611 378 603 385T584 397Q617 371 617 306Q617 249 593 201Q586 187 577 172T553 138ZM475 395Q460 388 448 376Q429 357 429 335Q429 317 444 317Q453 317 453 327Q453 329 453 331T451 339Q449 349 449 353Q449 372 475 395Z"  />
<glyph unicode="&#xBE;" horiz-adv-x="708" d="M33 359Q51 276 136 276Q177 276 198 299Q222 326 222 392Q222 452 199 477Q179 495 146 495Q112 495 74 473L66 486Q87 497 127 508Q171 519 190 542Q210 565 210 609Q210 675 151 675Q125 675 108 664Q93 654 93 636Q93 632 94 628T97 618Q103 604 103 599Q103 580 75 580Q46 580 46 606Q46 636 72 659Q105 689 157 689Q206 689 238 663Q270 637 270 600Q270 555 216 525Q209 521 197 517T167 506Q197 501 224 485Q285 451 285 394Q285 342 244 303Q202 264 138 264Q73 264 40 307Q25 326 19 357L33 359ZM200 286Q208 291 215 297T229 312Q256 348 256 393Q256 449 210 482Q234 455 234 393Q234 316 200 286ZM187 523Q244 555 244 602Q244 633 221 658Q213 666 200 671Q223 654 223 610Q223 571 210 549Q206 543 201 537T187 523ZM91 662Q58 638 58 608Q58 593 72 593Q81 593 81 602Q81 603 81 606T79 614Q78 619 78 623T77 630Q77 642 91 662ZM163 -6L527 694L544 686L181 -14L163 -6ZM510 12H562V98H393Q405 128 422 162T463 238Q491 289 519 329T573 402Q583 414 591 414Q601 416 606 416Q634 416 634 401Q634 396 617 379Q556 326 500 252Q481 227 459 193T414 114H562V265H618V114H670V98H618V12H670V0H510V12ZM593 12V253H575V12H593ZM474 234Q497 266 515 289T547 329Q559 343 574 359T607 393Q613 399 613 401Q613 406 604 406Q593 406 589 402Q581 396 565 376T525 318Q501 282 474 234Z"  />
<glyph unicode="&#xBF;" horiz-adv-x="389" d="M269 420Q290 420 307 403Q320 387 320 370Q320 348 303 331Q287 318 268 318Q247 318 230 335Q217 351 217 370Q217 390 234 407Q250 420 269 420ZM268 408Q256 406 249 402Q230 391 230 369Q230 347 249 336Q256 332 268 330V408ZM259 0Q254 9 250 16T242 28Q224 46 196 46Q154 46 141 3Q136 -14 134 -43T131 -117Q131 -211 143 -244Q155 -275 192 -275Q215 -275 233 -263Q249 -251 249 -237Q249 -226 237 -206Q225 -190 225 -176Q225 -141 266 -141Q308 -141 308 -179Q308 -212 285 -242Q249 -288 187 -288Q135 -288 105 -255Q64 -210 64 -117Q64 -75 73 -41T102 18Q135 60 187 60Q213 60 233 49Q239 45 245 40T260 27V241H276V0H259ZM146 39Q136 34 128 27T113 11Q76 -38 76 -117Q76 -205 114 -246Q124 -258 142 -267Q103 -228 103 -118Q103 -31 123 9Q133 26 146 39ZM259 -250Q275 -218 275 -180Q275 -158 258 -158Q238 -158 238 -177Q238 -184 248 -202Q262 -222 262 -235Q262 -241 259 -250Z"  />
<glyph unicode="&#xC0;" horiz-adv-x="708" d="M-3 12H82L340 697H363L623 12H708V0H414V12H520L419 279H199L97 12H202V0H-3V12ZM414 293L308 570L203 293H414ZM572 12L333 637L314 586L533 12H572ZM187 842Q171 855 171 869Q171 882 183 893Q193 902 205 902Q218 902 229 890Q231 888 237 882T252 863L365 726H351L187 842ZM238 857Q226 872 216 879T200 886Q192 886 187 881Q181 876 181 869Q181 859 196 849L325 758L238 857Z"  />
<glyph unicode="&#xC1;" horiz-adv-x="708" d="M-3 12H82L340 697H363L623 12H708V0H414V12H520L419 279H199L97 12H202V0H-3V12ZM414 293L308 570L203 293H414ZM572 12L333 637L314 586L533 12H572ZM451 863Q462 876 468 883T476 893Q486 902 498 902Q509 902 520 893Q532 884 532 869Q532 854 516 842L351 726H339L451 863ZM501 848Q515 859 515 869Q515 878 510 881Q505 886 497 886Q491 886 481 879T459 857L379 758L501 848Z"  />
<glyph unicode="&#xC2;" horiz-adv-x="708" d="M-3 12H82L340 697H363L623 12H708V0H414V12H520L419 279H199L97 12H202V0H-3V12ZM414 293L308 570L203 293H414ZM572 12L333 637L314 586L533 12H572ZM327 885H380L488 726H476L354 827L232 726H219L327 885ZM354 840L409 796L371 875H333L253 757L354 840Z"  />
<glyph unicode="&#xC3;" horiz-adv-x="708" d="M-3 12H82L340 697H363L623 12H708V0H414V12H520L419 279H199L97 12H202V0H-3V12ZM414 293L308 570L203 293H414ZM572 12L333 637L314 586L533 12H572ZM204 749Q212 787 230 808Q258 843 299 843Q310 843 324 839T356 825L376 816Q409 798 427 798Q464 798 489 846H503Q499 830 493 817T479 791Q450 749 404 749Q381 749 355 762L323 778Q296 793 276 793Q236 793 216 749H204ZM358 781Q386 768 405 768Q468 768 492 836Q468 788 426 788Q408 788 372 805L352 816Q316 833 299 833Q259 833 231 796Q220 782 213 759Q225 784 234 795Q253 813 277 813Q297 813 326 797L358 781Z"  />
<glyph unicode="&#xC4;" horiz-adv-x="708" d="M-3 12H82L340 697H363L623 12H708V0H414V12H520L419 279H199L97 12H202V0H-3V12ZM414 293L308 570L203 293H414ZM572 12L333 637L314 586L533 12H572ZM266 832Q283 832 296 819T309 788Q309 769 296 757T265 744Q247 744 234 756T221 788Q221 807 234 819T266 832ZM265 819Q251 819 242 810T233 788Q233 774 242 766T265 756V819ZM443 832Q460 832 473 819T486 788Q486 769 473 757T442 744Q424 744 411 756T398 788Q398 807 411 819T443 832ZM442 819Q428 819 419 810T410 788Q410 774 419 766T442 756V819Z"  />
<glyph unicode="&#xC5;" horiz-adv-x="708" d="M-3 12H82L340 697H363L623 12H708V0H414V12H520L419 279H199L97 12H202V0H-3V12ZM414 293L308 570L203 293H414ZM572 12L333 637L314 586L533 12H572ZM354 906Q385 906 409 883Q441 856 441 820Q441 784 409 755Q382 733 353 733Q321 733 296 754Q265 782 265 820Q265 858 296 883Q323 906 354 906ZM352 893Q307 893 307 821Q307 775 321 758Q333 746 353 746Q375 746 386 760Q399 776 399 821Q399 865 383 881Q374 893 352 893ZM326 894Q318 890 313 887T302 879Q274 853 274 820Q274 785 302 760Q311 752 327 745Q315 752 310 761Q297 781 297 821Q297 876 326 894ZM379 894Q407 875 407 821Q407 783 396 761Q394 756 389 753T378 745Q394 752 403 761Q431 785 431 819Q431 852 403 879Q394 886 379 894Z"  />
<glyph unicode="&#xC6;" horiz-adv-x="908" d="M-11 12H48L429 668H335V680H807V523H796Q788 550 777 572T752 615Q729 646 697 660Q678 668 646 668H540V370H569Q606 370 624 381Q669 409 686 498H696V229H686Q679 287 654 321Q636 347 608 353Q601 355 591 356T569 357H540V12H662Q709 12 739 36Q794 79 827 191H838V0H338V12H444V282H221L64 12H170V0H-11V12ZM444 296V668L228 296H444ZM666 405Q644 375 617 364Q646 353 666 328V405ZM776 668H711Q750 645 776 600V668ZM807 12V103Q773 38 724 12H807ZM492 12V668H456V12H492Z"  />
<glyph unicode="&#xC7;" horiz-adv-x="690" d="M321 -193Q356 -216 383 -216Q433 -216 433 -145Q433 -78 387 -78Q371 -78 350 -90L337 -75L392 -15Q301 -9 227 44Q151 99 110 180Q74 250 74 341Q74 447 124 526Q156 576 204 619Q295 697 409 697Q450 697 483 688Q491 686 502 682T529 671Q557 660 573 660Q597 660 615 680H628V489H617Q606 557 568 610Q539 653 496 669Q460 685 408 685Q295 685 244 609Q209 556 197 487Q190 451 187 414T184 338Q184 154 245 68Q296 -3 405 -3Q536 -3 589 88Q613 127 631 203H642V0H627Q612 20 583 20Q563 20 512 2Q488 -7 463 -11T411 -16L359 -72Q384 -58 408 -58Q435 -58 457 -75Q486 -100 486 -140Q486 -180 458 -205Q431 -232 388 -232Q354 -232 313 -203L321 -193ZM255 643Q219 618 193 592Q135 532 109 467Q88 411 88 342Q88 154 260 34Q221 73 194 115Q170 150 158 183Q129 254 129 350Q129 479 188 564Q212 600 255 643ZM598 651Q586 647 572 647Q559 647 546 653Q560 641 573 625T598 585V651ZM611 96Q599 74 586 58T558 30Q564 32 570 32T583 32Q591 32 598 31T611 27V96ZM374 -72Q379 -71 382 -71T388 -71Q445 -71 445 -144Q445 -223 382 -223Q371 -223 350 -217Q369 -225 388 -225Q425 -225 449 -201Q473 -176 473 -140Q473 -104 449 -81Q430 -65 408 -65Q391 -65 374 -72Z"  />
<glyph unicode="&#xC8;" horiz-adv-x="672" d="M29 12H135V668H29V680H574V515H563Q521 673 390 668H230V370H307Q364 368 394 410Q418 443 432 512H442V215H432Q417 287 394 318Q375 347 345 353Q333 357 307 357H230V12H387Q441 12 473 25Q530 46 570 119Q581 141 589 163T601 209H611V0H29V12ZM182 12V668H147V12H182ZM543 668H465Q489 658 508 641T543 601V668ZM581 12V108Q561 74 536 51T478 12H581ZM412 414Q404 402 394 392T371 373Q365 370 359 368T346 364Q383 360 412 314V414ZM203 842Q187 855 187 869Q187 882 199 893Q209 902 221 902Q234 902 245 890Q247 888 253 882T268 863L381 726H367L203 842ZM254 857Q242 872 232 879T216 886Q208 886 203 881Q197 876 197 869Q197 859 212 849L341 758L254 857Z"  />
<glyph unicode="&#xC9;" horiz-adv-x="672" d="M29 12H135V668H29V680H574V515H563Q521 673 390 668H230V370H307Q364 368 394 410Q418 443 432 512H442V215H432Q417 287 394 318Q375 347 345 353Q333 357 307 357H230V12H387Q441 12 473 25Q530 46 570 119Q581 141 589 163T601 209H611V0H29V12ZM182 12V668H147V12H182ZM543 668H465Q489 658 508 641T543 601V668ZM581 12V108Q561 74 536 51T478 12H581ZM412 414Q404 402 394 392T371 373Q365 370 359 368T346 364Q383 360 412 314V414ZM409 863Q420 876 426 883T434 893Q444 902 456 902Q467 902 478 893Q490 884 490 869Q490 854 474 842L309 726H297L409 863ZM459 848Q473 859 473 869Q473 878 468 881Q463 886 455 886Q449 886 439 879T417 857L337 758L459 848Z"  />
<glyph unicode="&#xCA;" horiz-adv-x="672" d="M29 12H135V668H29V680H574V515H563Q521 673 390 668H230V370H307Q364 368 394 410Q418 443 432 512H442V215H432Q417 287 394 318Q375 347 345 353Q333 357 307 357H230V12H387Q441 12 473 25Q530 46 570 119Q581 141 589 163T601 209H611V0H29V12ZM182 12V668H147V12H182ZM543 668H465Q489 658 508 641T543 601V668ZM581 12V108Q561 74 536 51T478 12H581ZM412 414Q404 402 394 392T371 373Q365 370 359 368T346 364Q383 360 412 314V414ZM310 885H363L471 726H459L337 827L215 726H202L310 885ZM337 840L392 796L354 875H316L236 757L337 840Z"  />
<glyph unicode="&#xCB;" horiz-adv-x="672" d="M29 12H135V668H29V680H574V515H563Q521 673 390 668H230V370H307Q364 368 394 410Q418 443 432 512H442V215H432Q417 287 394 318Q375 347 345 353Q333 357 307 357H230V12H387Q441 12 473 25Q530 46 570 119Q581 141 589 163T601 209H611V0H29V12ZM182 12V668H147V12H182ZM543 668H465Q489 658 508 641T543 601V668ZM581 12V108Q561 74 536 51T478 12H581ZM412 414Q404 402 394 392T371 373Q365 370 359 368T346 364Q383 360 412 314V414ZM250 832Q267 832 280 819T293 788Q293 769 280 757T249 744Q231 744 218 756T205 788Q205 807 218 819T250 832ZM249 819Q235 819 226 810T217 788Q217 774 226 766T249 756V819ZM427 832Q444 832 457 819T470 788Q470 769 457 757T426 744Q408 744 395 756T382 788Q382 807 395 819T427 832ZM426 819Q412 819 403 810T394 788Q394 774 403 766T426 756V819Z"  />
<glyph unicode="&#xCC;" horiz-adv-x="364" d="M29 12H135V668H29V680H336V668H230V12H336V0H29V12ZM182 12V668H147V12H182ZM67 842Q51 855 51 869Q51 882 63 893Q73 902 85 902Q98 902 109 890Q111 888 117 882T132 863L245 726H231L67 842ZM118 857Q106 872 96 879T80 886Q72 886 67 881Q61 876 61 869Q61 859 76 849L205 758L118 857Z"  />
<glyph unicode="&#xCD;" horiz-adv-x="364" d="M29 12H135V668H29V680H336V668H230V12H336V0H29V12ZM182 12V668H147V12H182ZM254 863Q265 876 271 883T279 893Q289 902 301 902Q312 902 323 893Q335 884 335 869Q335 854 319 842L154 726H142L254 863ZM304 848Q318 859 318 869Q318 878 313 881Q308 886 300 886Q294 886 284 879T262 857L182 758L304 848Z"  />
<glyph unicode="&#xCE;" horiz-adv-x="364" d="M29 12H135V668H29V680H336V668H230V12H336V0H29V12ZM182 12V668H147V12H182ZM157 885H210L318 726H306L184 827L62 726H49L157 885ZM184 840L239 796L201 875H163L83 757L184 840Z"  />
<glyph unicode="&#xCF;" horiz-adv-x="364" d="M29 12H135V668H29V680H336V668H230V12H336V0H29V12ZM182 12V668H147V12H182ZM97 832Q114 832 127 819T140 788Q140 769 127 757T96 744Q78 744 65 756T52 788Q52 807 65 819T97 832ZM96 819Q82 819 73 810T64 788Q64 774 73 766T96 756V819ZM274 832Q291 832 304 819T317 788Q317 769 304 757T273 744Q255 744 242 756T229 788Q229 807 242 819T274 832ZM273 819Q259 819 250 810T241 788Q241 774 250 766T273 756V819Z"  />
<glyph unicode="&#xD0;" horiz-adv-x="778" d="M29 12H135V358H29V371H135V668H29V680H160Q166 680 185 680T236 682Q268 683 289 683T319 684Q447 684 529 643Q705 555 705 340Q705 201 625 109Q547 22 435 3Q385 -6 322 -6Q293 -6 235 -3Q187 0 160 0H29V12ZM230 12Q254 10 277 9T325 7Q437 7 498 59Q554 109 575 188Q595 260 595 336Q595 384 588 427T567 513Q532 615 440 651Q394 671 317 671Q282 671 230 668V371H361V358H230V12ZM182 12V668H147V12H182ZM471 25Q519 46 552 76Q603 125 626 191Q649 259 649 339Q649 473 590 556Q538 627 467 653Q480 646 490 640T507 626Q558 583 580 517Q608 434 608 336Q608 140 506 50Q501 45 492 39T471 25Z"  />
<glyph unicode="&#xD1;" horiz-adv-x="690" d="M142 628V12H248V0H21V12H127V668H21V680H224L549 159V668H443V680H670V668H564V-15H545L142 628ZM549 82L180 668H142V657L549 6V82ZM207 749Q215 787 233 808Q261 843 302 843Q313 843 327 839T359 825L379 816Q412 798 430 798Q467 798 492 846H506Q502 830 496 817T482 791Q453 749 407 749Q384 749 358 762L326 778Q299 793 279 793Q239 793 219 749H207ZM361 781Q389 768 408 768Q471 768 495 836Q471 788 429 788Q411 788 375 805L355 816Q319 833 302 833Q262 833 234 796Q223 782 216 759Q228 784 237 795Q256 813 280 813Q300 813 329 797L361 781Z"  />
<glyph unicode="&#xD2;" horiz-adv-x="813" d="M281 842Q265 855 265 869Q265 882 277 893Q287 902 299 902Q312 902 323 890Q325 888 331 882T346 863L459 726H445L281 842ZM332 857Q320 872 310 879T294 886Q286 886 281 881Q275 876 275 869Q275 859 290 849L419 758L332 857ZM410 697Q531 697 630 599Q738 491 738 341Q738 186 628 79Q530 -16 406 -16Q281 -16 183 79Q74 187 74 340Q74 495 181 599Q243 655 304 679Q347 697 410 697ZM402 685Q293 685 244 609Q208 557 196 487Q189 451 186 414T183 338Q183 215 209 139Q240 47 308 15Q347 -3 406 -3Q517 -3 567 68Q628 154 628 335Q628 462 604 539Q572 633 504 666Q463 685 402 685ZM254 643Q218 618 192 592Q163 562 142 531T108 467Q97 439 92 408T86 342Q86 153 259 34Q220 73 193 115Q181 133 172 150T157 183Q128 258 128 350Q128 479 187 564Q211 600 254 643ZM558 643Q569 630 578 616T596 585Q641 498 641 339Q641 172 590 82Q577 58 558 34Q572 46 583 58T605 85Q683 193 683 339Q683 485 605 593Q594 607 583 619T558 643Z"  />
<glyph unicode="&#xD3;" horiz-adv-x="813" d="M410 697Q531 697 630 599Q738 491 738 341Q738 186 628 79Q530 -16 406 -16Q281 -16 183 79Q74 187 74 340Q74 495 181 599Q243 655 304 679Q347 697 410 697ZM402 685Q293 685 244 609Q208 557 196 487Q189 451 186 414T183 338Q183 215 209 139Q240 47 308 15Q347 -3 406 -3Q517 -3 567 68Q628 154 628 335Q628 462 604 539Q572 633 504 666Q463 685 402 685ZM254 643Q218 618 192 592Q163 562 142 531T108 467Q97 439 92 408T86 342Q86 153 259 34Q220 73 193 115Q181 133 172 150T157 183Q128 258 128 350Q128 479 187 564Q211 600 254 643ZM558 643Q569 630 578 616T596 585Q641 498 641 339Q641 172 590 82Q577 58 558 34Q572 46 583 58T605 85Q683 193 683 339Q683 485 605 593Q594 607 583 619T558 643ZM483 863Q494 876 500 883T508 893Q518 902 530 902Q541 902 552 893Q564 884 564 869Q564 854 548 842L383 726H371L483 863ZM533 848Q547 859 547 869Q547 878 542 881Q537 886 529 886Q523 886 513 879T491 857L411 758L533 848Z"  />
<glyph unicode="&#xD4;" horiz-adv-x="813" d="M410 697Q531 697 630 599Q738 491 738 341Q738 186 628 79Q530 -16 406 -16Q281 -16 183 79Q74 187 74 340Q74 495 181 599Q243 655 304 679Q347 697 410 697ZM402 685Q293 685 244 609Q208 557 196 487Q189 451 186 414T183 338Q183 215 209 139Q240 47 308 15Q347 -3 406 -3Q517 -3 567 68Q628 154 628 335Q628 462 604 539Q572 633 504 666Q463 685 402 685ZM254 643Q218 618 192 592Q163 562 142 531T108 467Q97 439 92 408T86 342Q86 153 259 34Q220 73 193 115Q181 133 172 150T157 183Q128 258 128 350Q128 479 187 564Q211 600 254 643ZM558 643Q569 630 578 616T596 585Q641 498 641 339Q641 172 590 82Q577 58 558 34Q572 46 583 58T605 85Q683 193 683 339Q683 485 605 593Q594 607 583 619T558 643ZM379 885H432L540 726H528L406 827L284 726H271L379 885ZM406 840L461 796L423 875H385L305 757L406 840Z"  />
<glyph unicode="&#xD5;" horiz-adv-x="813" d="M410 697Q531 697 630 599Q738 491 738 341Q738 186 628 79Q530 -16 406 -16Q281 -16 183 79Q74 187 74 340Q74 495 181 599Q243 655 304 679Q347 697 410 697ZM402 685Q293 685 244 609Q208 557 196 487Q189 451 186 414T183 338Q183 215 209 139Q240 47 308 15Q347 -3 406 -3Q517 -3 567 68Q628 154 628 335Q628 462 604 539Q572 633 504 666Q463 685 402 685ZM254 643Q218 618 192 592Q163 562 142 531T108 467Q97 439 92 408T86 342Q86 153 259 34Q220 73 193 115Q181 133 172 150T157 183Q128 258 128 350Q128 479 187 564Q211 600 254 643ZM558 643Q569 630 578 616T596 585Q641 498 641 339Q641 172 590 82Q577 58 558 34Q572 46 583 58T605 85Q683 193 683 339Q683 485 605 593Q594 607 583 619T558 643ZM262 749Q270 787 288 808Q316 843 357 843Q368 843 382 839T414 825L434 816Q467 798 485 798Q522 798 547 846H561Q557 830 551 817T537 791Q508 749 462 749Q439 749 413 762L381 778Q354 793 334 793Q294 793 274 749H262ZM416 781Q444 768 463 768Q526 768 550 836Q526 788 484 788Q466 788 430 805L410 816Q374 833 357 833Q317 833 289 796Q278 782 271 759Q283 784 292 795Q311 813 335 813Q355 813 384 797L416 781Z"  />
<glyph unicode="&#xD6;" horiz-adv-x="813" d="M410 697Q531 697 630 599Q738 491 738 341Q738 186 628 79Q530 -16 406 -16Q281 -16 183 79Q74 187 74 340Q74 495 181 599Q243 655 304 679Q347 697 410 697ZM402 685Q293 685 244 609Q208 557 196 487Q189 451 186 414T183 338Q183 215 209 139Q240 47 308 15Q347 -3 406 -3Q517 -3 567 68Q628 154 628 335Q628 462 604 539Q572 633 504 666Q463 685 402 685ZM254 643Q218 618 192 592Q163 562 142 531T108 467Q97 439 92 408T86 342Q86 153 259 34Q220 73 193 115Q181 133 172 150T157 183Q128 258 128 350Q128 479 187 564Q211 600 254 643ZM558 643Q569 630 578 616T596 585Q641 498 641 339Q641 172 590 82Q577 58 558 34Q572 46 583 58T605 85Q683 193 683 339Q683 485 605 593Q594 607 583 619T558 643ZM319 832Q336 832 349 819T362 788Q362 769 349 757T318 744Q300 744 287 756T274 788Q274 807 287 819T319 832ZM318 819Q304 819 295 810T286 788Q286 774 295 766T318 756V819ZM496 832Q513 832 526 819T539 788Q539 769 526 757T495 744Q477 744 464 756T451 788Q451 807 464 819T496 832ZM495 819Q481 819 472 810T463 788Q463 774 472 766T495 756V819Z"  />
<glyph unicode="&#xD7;" horiz-adv-x="566" d="M73 32L270 229L73 427L85 440L284 242L481 440L495 427L296 229L495 32L481 18L284 217L85 18L73 32Z"  />
<glyph unicode="&#xD8;" horiz-adv-x="813" d="M190 -70L245 31Q74 146 74 341Q74 449 123 526Q155 576 203 619Q296 697 406 697Q486 697 549 661L602 756L614 751L561 654Q580 642 597 629T629 599Q690 539 716 470Q738 414 738 342Q738 186 628 79Q530 -16 408 -16Q322 -16 257 24L202 -74L190 -70ZM540 643Q489 685 406 685Q293 685 244 609Q226 582 214 552T196 487Q189 451 186 414T183 336Q183 194 219 115Q225 98 234 83T256 53L540 643ZM265 42Q316 -3 407 -3Q517 -3 567 68Q604 120 616 192Q623 227 625 264T628 342Q628 547 550 632L265 42ZM254 643Q218 618 192 592Q163 562 142 531T108 467Q97 439 92 408T86 342Q86 153 259 34Q220 73 193 115Q181 133 172 150T157 183Q128 258 128 350Q128 479 187 564Q211 600 254 643ZM558 643Q569 630 578 616T596 585Q641 498 641 339Q641 172 590 82Q577 58 558 34Q572 46 583 58T605 85Q683 193 683 339Q683 485 605 593Q594 607 583 619T558 643Z"  />
<glyph unicode="&#xD9;" horiz-adv-x="725" d="M129 668H23V680H330V668H224V194Q224 93 254 51Q291 -3 380 -3Q449 -3 499 27Q569 68 582 156Q584 172 585 193T586 244V668H480V680H708V668H602V244Q602 184 596 150Q579 60 506 16Q455 -16 370 -16Q282 -16 223 18Q153 59 137 137Q129 174 129 223V668ZM177 668H141V223Q141 123 181 72Q222 21 293 3Q248 29 222 60Q190 99 181 147Q179 158 178 174T177 211V668ZM274 842Q258 855 258 869Q258 882 270 893Q280 902 292 902Q305 902 316 890Q318 888 324 882T339 863L452 726H438L274 842ZM325 857Q313 872 303 879T287 886Q279 886 274 881Q268 876 268 869Q268 859 283 849L412 758L325 857Z"  />
<glyph unicode="&#xDA;" horiz-adv-x="725" d="M129 668H23V680H330V668H224V194Q224 93 254 51Q291 -3 380 -3Q449 -3 499 27Q569 68 582 156Q584 172 585 193T586 244V668H480V680H708V668H602V244Q602 184 596 150Q579 60 506 16Q455 -16 370 -16Q282 -16 223 18Q153 59 137 137Q129 174 129 223V668ZM177 668H141V223Q141 123 181 72Q222 21 293 3Q248 29 222 60Q190 99 181 147Q179 158 178 174T177 211V668ZM475 863Q486 876 492 883T500 893Q510 902 522 902Q533 902 544 893Q556 884 556 869Q556 854 540 842L375 726H363L475 863ZM525 848Q539 859 539 869Q539 878 534 881Q529 886 521 886Q515 886 505 879T483 857L403 758L525 848Z"  />
<glyph unicode="&#xDB;" horiz-adv-x="725" d="M129 668H23V680H330V668H224V194Q224 93 254 51Q291 -3 380 -3Q449 -3 499 27Q569 68 582 156Q584 172 585 193T586 244V668H480V680H708V668H602V244Q602 184 596 150Q579 60 506 16Q455 -16 370 -16Q282 -16 223 18Q153 59 137 137Q129 174 129 223V668ZM177 668H141V223Q141 123 181 72Q222 21 293 3Q248 29 222 60Q190 99 181 147Q179 158 178 174T177 211V668ZM369 885H422L530 726H518L396 827L274 726H261L369 885ZM396 840L451 796L413 875H375L295 757L396 840Z"  />
<glyph unicode="&#xDC;" horiz-adv-x="725" d="M129 668H23V680H330V668H224V194Q224 93 254 51Q291 -3 380 -3Q449 -3 499 27Q569 68 582 156Q584 172 585 193T586 244V668H480V680H708V668H602V244Q602 184 596 150Q579 60 506 16Q455 -16 370 -16Q282 -16 223 18Q153 59 137 137Q129 174 129 223V668ZM177 668H141V223Q141 123 181 72Q222 21 293 3Q248 29 222 60Q190 99 181 147Q179 158 178 174T177 211V668ZM304 832Q321 832 334 819T347 788Q347 769 334 757T303 744Q285 744 272 756T259 788Q259 807 272 819T304 832ZM303 819Q289 819 280 810T271 788Q271 774 280 766T303 756V819ZM481 832Q498 832 511 819T524 788Q524 769 511 757T480 744Q462 744 449 756T436 788Q436 807 449 819T481 832ZM480 819Q466 819 457 810T448 788Q448 774 457 766T480 756V819Z"  />
<glyph unicode="&#xDD;" horiz-adv-x="672" d="M194 12H300V287L85 668H-4V680H290V668H195L386 330L565 668H470V680H675V668H582L395 318V12H501V0H194V12ZM348 12V301L140 668H97L312 287V12H348ZM442 863Q453 876 459 883T467 893Q477 902 489 902Q500 902 511 893Q523 884 523 869Q523 854 507 842L342 726H330L442 863ZM492 848Q506 859 506 869Q506 878 501 881Q496 886 488 886Q482 886 472 879T450 857L370 758L492 848Z"  />
<glyph unicode="&#xDE;" horiz-adv-x="617" d="M29 12H135V668H29V680H336V668H230V565Q253 566 267 566T290 566Q389 566 448 541Q502 519 531 485Q567 441 567 388Q567 325 520 279Q480 238 407 218Q361 205 306 205Q292 205 273 206T230 210V12H336V0H29V12ZM230 226Q250 222 268 220T303 218Q457 218 457 383Q457 496 395 534Q360 553 291 553Q279 553 264 553T230 551V226ZM182 12V668H147V12H182ZM408 541Q471 494 471 382Q471 276 405 230Q434 242 452 256Q515 304 515 387Q515 468 456 515Q435 531 408 541Z"  />
<glyph unicode="&#xDF;" horiz-adv-x="579" d="M29 12H103V457Q103 557 140 613Q154 633 172 648T213 675Q257 697 311 697Q375 697 410 666Q448 633 448 572Q448 533 429 501Q420 488 391 459Q380 449 373 442T361 429Q349 413 349 395Q349 366 381 337Q389 330 403 318T440 287Q482 255 502 227Q533 188 533 137Q533 68 482 28Q438 -11 366 -11Q308 -11 267 11Q230 34 230 74Q230 94 241 108Q253 123 275 123Q289 123 303 116Q315 108 315 93Q315 88 313 81T308 64Q300 45 300 36Q300 2 368 2Q469 2 469 95Q469 131 450 161Q433 186 342 263Q310 290 297 308Q280 334 280 359Q280 393 314 423Q327 435 365 462Q384 476 396 488T414 509Q432 536 432 573Q432 624 398 655Q369 681 320 681Q241 681 205 614Q184 572 184 497V0H29V12ZM351 436Q343 430 336 425T323 414Q292 385 292 358Q292 329 321 300Q327 293 341 281T378 249Q427 209 447 185Q481 147 481 95Q481 55 464 30Q502 67 502 124Q502 175 468 213Q457 225 439 241T395 278Q363 303 345 325Q321 350 321 375Q321 397 335 416Q337 419 341 424T351 436ZM295 12Q274 27 274 49Q274 59 278 72Q282 84 282 92Q282 106 266 106Q244 106 244 74Q244 33 295 12ZM145 12V464Q145 535 157 568Q179 634 250 676Q112 635 116 457V12H145Z"  />
<glyph unicode="&#xE0;" horiz-adv-x="460" d="M457 12Q423 -11 385 -11Q332 -11 308 21Q303 29 299 39T292 64Q282 39 264 23Q227 -11 162 -11Q39 -11 39 82Q39 128 71 154Q95 174 155 191Q168 196 216 209Q250 219 263 227Q283 240 287 258Q292 275 292 311Q292 352 287 370Q273 410 217 410Q180 410 158 390Q146 378 146 357Q146 346 149 331Q152 313 152 306Q152 276 112 276Q68 276 68 315Q68 359 104 389Q144 422 218 422Q309 422 348 371Q364 349 368 323Q369 316 369 306T370 282V68Q370 36 374 25Q381 7 404 7Q426 7 449 24L457 12ZM290 237Q281 222 268 215Q253 206 215 192Q192 183 176 175T151 158Q123 133 123 87Q123 50 142 28Q159 8 192 8Q251 8 278 65Q290 92 290 155V237ZM331 261Q331 333 324 358Q311 395 272 406Q294 390 300 372Q305 355 305 319L303 256V117Q301 57 322 29Q344 1 382 1Q368 6 358 12T343 28Q331 43 331 92V261ZM154 2Q81 23 81 86Q81 123 107 147Q120 159 149 178Q132 173 119 168T94 156Q52 130 52 86Q52 30 103 11Q121 3 154 2ZM166 409Q153 404 143 399T123 389Q81 360 81 315Q81 289 103 289Q118 289 118 303Q118 305 118 308T117 319Q117 327 117 332T116 340Q116 370 134 388Q145 399 166 409ZM117 644Q101 655 101 670Q101 685 113 694Q123 703 135 703Q148 703 159 691Q164 688 182 665L295 527H281L117 644ZM168 658Q144 688 130 688Q122 688 117 683Q111 677 111 670Q111 660 126 650L255 560L168 658Z"  />
<glyph unicode="&#xE1;" horiz-adv-x="460" d="M457 12Q423 -11 385 -11Q332 -11 308 21Q303 29 299 39T292 64Q282 39 264 23Q227 -11 162 -11Q39 -11 39 82Q39 128 71 154Q95 174 155 191Q168 196 216 209Q250 219 263 227Q283 240 287 258Q292 275 292 311Q292 352 287 370Q273 410 217 410Q180 410 158 390Q146 378 146 357Q146 346 149 331Q152 313 152 306Q152 276 112 276Q68 276 68 315Q68 359 104 389Q144 422 218 422Q309 422 348 371Q364 349 368 323Q369 316 369 306T370 282V68Q370 36 374 25Q381 7 404 7Q426 7 449 24L457 12ZM290 237Q281 222 268 215Q253 206 215 192Q192 183 176 175T151 158Q123 133 123 87Q123 50 142 28Q159 8 192 8Q251 8 278 65Q290 92 290 155V237ZM331 261Q331 333 324 358Q311 395 272 406Q294 390 300 372Q305 355 305 319L303 256V117Q301 57 322 29Q344 1 382 1Q368 6 358 12T343 28Q331 43 331 92V261ZM154 2Q81 23 81 86Q81 123 107 147Q120 159 149 178Q132 173 119 168T94 156Q52 130 52 86Q52 30 103 11Q121 3 154 2ZM166 409Q153 404 143 399T123 389Q81 360 81 315Q81 289 103 289Q118 289 118 303Q118 305 118 308T117 319Q117 327 117 332T116 340Q116 370 134 388Q145 399 166 409ZM289 665Q300 677 306 684T314 694Q324 703 336 703Q347 703 358 694Q370 686 370 670Q370 654 354 644L189 527H177L289 665ZM339 649Q353 660 353 670Q353 678 348 683Q343 688 335 688Q321 688 297 658L217 560L339 649Z"  />
<glyph unicode="&#xE2;" horiz-adv-x="460" d="M457 12Q423 -11 385 -11Q332 -11 308 21Q303 29 299 39T292 64Q282 39 264 23Q227 -11 162 -11Q39 -11 39 82Q39 128 71 154Q95 174 155 191Q168 196 216 209Q250 219 263 227Q283 240 287 258Q292 275 292 311Q292 352 287 370Q273 410 217 410Q180 410 158 390Q146 378 146 357Q146 346 149 331Q152 313 152 306Q152 276 112 276Q68 276 68 315Q68 359 104 389Q144 422 218 422Q309 422 348 371Q364 349 368 323Q369 316 369 306T370 282V68Q370 36 374 25Q381 7 404 7Q426 7 449 24L457 12ZM290 237Q281 222 268 215Q253 206 215 192Q192 183 176 175T151 158Q123 133 123 87Q123 50 142 28Q159 8 192 8Q251 8 278 65Q290 92 290 155V237ZM331 261Q331 333 324 358Q311 395 272 406Q294 390 300 372Q305 355 305 319L303 256V117Q301 57 322 29Q344 1 382 1Q368 6 358 12T343 28Q331 43 331 92V261ZM154 2Q81 23 81 86Q81 123 107 147Q120 159 149 178Q132 173 119 168T94 156Q52 130 52 86Q52 30 103 11Q121 3 154 2ZM166 409Q153 404 143 399T123 389Q81 360 81 315Q81 289 103 289Q118 289 118 303Q118 305 118 308T117 319Q117 327 117 332T116 340Q116 370 134 388Q145 399 166 409ZM191 687H244L352 527H340L218 628L96 527H83L191 687ZM218 642L273 597L235 676H197L117 559L218 642Z"  />
<glyph unicode="&#xE3;" horiz-adv-x="460" d="M457 12Q423 -11 385 -11Q332 -11 308 21Q303 29 299 39T292 64Q282 39 264 23Q227 -11 162 -11Q39 -11 39 82Q39 128 71 154Q95 174 155 191Q168 196 216 209Q250 219 263 227Q283 240 287 258Q292 275 292 311Q292 352 287 370Q273 410 217 410Q180 410 158 390Q146 378 146 357Q146 346 149 331Q152 313 152 306Q152 276 112 276Q68 276 68 315Q68 359 104 389Q144 422 218 422Q309 422 348 371Q364 349 368 323Q369 316 369 306T370 282V68Q370 36 374 25Q381 7 404 7Q426 7 449 24L457 12ZM290 237Q281 222 268 215Q253 206 215 192Q192 183 176 175T151 158Q123 133 123 87Q123 50 142 28Q159 8 192 8Q251 8 278 65Q290 92 290 155V237ZM331 261Q331 333 324 358Q311 395 272 406Q294 390 300 372Q305 355 305 319L303 256V117Q301 57 322 29Q344 1 382 1Q368 6 358 12T343 28Q331 43 331 92V261ZM154 2Q81 23 81 86Q81 123 107 147Q120 159 149 178Q132 173 119 168T94 156Q52 130 52 86Q52 30 103 11Q121 3 154 2ZM166 409Q153 404 143 399T123 389Q81 360 81 315Q81 289 103 289Q118 289 118 303Q118 305 118 308T117 319Q117 327 117 332T116 340Q116 370 134 388Q145 399 166 409ZM76 550Q84 588 102 609Q130 645 171 645Q193 645 228 626L248 617Q279 600 299 600Q337 600 361 647H375Q371 631 365 618T351 592Q322 550 276 550Q256 550 227 563L195 580Q167 594 148 594Q107 594 88 550H76ZM230 583Q256 569 277 569Q340 569 364 637Q340 589 298 589Q280 589 244 606L224 617Q188 634 171 634Q130 634 103 597Q98 590 94 582T85 561Q96 584 106 596Q125 614 149 614Q168 614 198 599L230 583Z"  />
<glyph unicode="&#xE4;" horiz-adv-x="460" d="M457 12Q423 -11 385 -11Q332 -11 308 21Q303 29 299 39T292 64Q282 39 264 23Q227 -11 162 -11Q39 -11 39 82Q39 128 71 154Q95 174 155 191Q168 196 216 209Q250 219 263 227Q283 240 287 258Q292 275 292 311Q292 352 287 370Q273 410 217 410Q180 410 158 390Q146 378 146 357Q146 346 149 331Q152 313 152 306Q152 276 112 276Q68 276 68 315Q68 359 104 389Q144 422 218 422Q309 422 348 371Q364 349 368 323Q369 316 369 306T370 282V68Q370 36 374 25Q381 7 404 7Q426 7 449 24L457 12ZM290 237Q281 222 268 215Q253 206 215 192Q192 183 176 175T151 158Q123 133 123 87Q123 50 142 28Q159 8 192 8Q251 8 278 65Q290 92 290 155V237ZM331 261Q331 333 324 358Q311 395 272 406Q294 390 300 372Q305 355 305 319L303 256V117Q301 57 322 29Q344 1 382 1Q368 6 358 12T343 28Q331 43 331 92V261ZM154 2Q81 23 81 86Q81 123 107 147Q120 159 149 178Q132 173 119 168T94 156Q52 130 52 86Q52 30 103 11Q121 3 154 2ZM166 409Q153 404 143 399T123 389Q81 360 81 315Q81 289 103 289Q118 289 118 303Q118 305 118 308T117 319Q117 327 117 332T116 340Q116 370 134 388Q145 399 166 409ZM133 633Q150 633 163 620T176 589Q176 570 163 558T132 545Q114 545 101 557T88 589Q88 608 101 620T133 633ZM132 620Q118 620 109 611T100 589Q100 575 109 567T132 557V620ZM310 633Q327 633 340 620T353 589Q353 570 340 558T309 545Q291 545 278 557T265 589Q265 608 278 620T310 633ZM309 620Q295 620 286 611T277 589Q277 575 286 567T309 557V620Z"  />
<glyph unicode="&#xE5;" horiz-adv-x="460" d="M457 12Q423 -11 385 -11Q332 -11 308 21Q303 29 299 39T292 64Q282 39 264 23Q227 -11 162 -11Q39 -11 39 82Q39 128 71 154Q95 174 155 191Q168 196 216 209Q250 219 263 227Q283 240 287 258Q292 275 292 311Q292 352 287 370Q273 410 217 410Q180 410 158 390Q146 378 146 357Q146 346 149 331Q152 313 152 306Q152 276 112 276Q68 276 68 315Q68 359 104 389Q144 422 218 422Q309 422 348 371Q364 349 368 323Q369 316 369 306T370 282V68Q370 36 374 25Q381 7 404 7Q426 7 449 24L457 12ZM290 237Q281 222 268 215Q253 206 215 192Q192 183 176 175T151 158Q123 133 123 87Q123 50 142 28Q159 8 192 8Q251 8 278 65Q290 92 290 155V237ZM331 261Q331 333 324 358Q311 395 272 406Q294 390 300 372Q305 355 305 319L303 256V117Q301 57 322 29Q344 1 382 1Q368 6 358 12T343 28Q331 43 331 92V261ZM154 2Q81 23 81 86Q81 123 107 147Q120 159 149 178Q132 173 119 168T94 156Q52 130 52 86Q52 30 103 11Q121 3 154 2ZM166 409Q153 404 143 399T123 389Q81 360 81 315Q81 289 103 289Q118 289 118 303Q118 305 118 308T117 319Q117 327 117 332T116 340Q116 370 134 388Q145 399 166 409ZM221 708Q250 708 276 685Q308 658 308 622Q308 584 276 557Q251 535 220 535Q187 535 163 556Q132 583 132 622Q132 660 163 685Q192 708 221 708ZM219 694Q174 694 174 623Q174 576 188 560Q200 547 220 547Q242 547 253 562Q266 576 266 623Q266 666 250 682Q241 694 219 694ZM193 695Q185 691 180 688T169 680Q141 655 141 622Q141 587 169 562Q174 557 180 554T194 546Q187 550 183 554T177 562Q164 584 164 623Q164 678 193 695ZM246 695Q274 677 274 623Q274 586 263 562Q258 554 245 546Q258 552 270 562Q298 587 298 621Q298 655 270 680Q265 685 260 688T246 695Z"  />
<glyph unicode="&#xE6;" horiz-adv-x="695" d="M647 101Q642 81 633 65T612 34Q568 -14 487 -14Q410 -14 359 25Q333 44 308 97Q287 -14 161 -14Q135 -14 114 -9T77 7Q39 34 39 86Q39 127 67 152Q91 173 151 192Q159 194 174 198T214 211Q258 224 278 241Q304 262 304 308Q304 353 286 380Q268 410 222 410Q184 410 161 393Q143 381 143 354Q143 347 148 329Q152 318 152 308Q152 276 110 276Q66 276 66 315Q66 359 102 389Q144 422 222 422Q314 422 351 364Q362 375 371 383T388 397Q426 422 480 422Q553 422 604 371Q629 346 640 318T651 255V239H383Q382 216 382 204T382 188Q382 147 387 115T401 59Q425 0 495 0Q533 0 568 18Q618 43 632 104L647 101ZM559 251Q562 288 562 310Q562 363 543 386Q525 410 486 410Q421 410 399 341Q388 309 384 251H559ZM303 251Q296 242 290 235T278 223Q260 211 218 193Q167 174 154 162Q123 139 123 90Q123 7 195 7Q246 7 273 46Q292 72 295 104Q298 125 301 211Q302 228 302 237T303 251ZM606 251V260Q606 294 596 327Q581 373 554 392Q560 384 563 376T569 360Q574 340 574 308Q574 287 571 251H606ZM339 330Q320 382 288 398Q316 369 316 310Q316 304 316 295T315 271Q315 267 315 256T314 227Q313 212 313 196T311 159Q311 152 311 145T310 131Q328 76 354 49Q381 19 428 7Q412 18 400 30T378 57Q364 84 354 119Q342 167 342 213Q342 300 381 359Q389 370 398 380T419 398Q396 391 376 371Q369 365 360 355T339 330ZM117 320Q116 327 116 332T115 342Q115 369 130 384Q135 391 148 398Q126 390 113 380Q78 354 78 314Q78 290 100 290Q117 290 117 308V320ZM165 -1Q80 22 80 87Q80 124 111 149Q124 161 156 180Q122 169 104 159Q78 147 67 133Q52 115 52 84Q52 24 110 6Q121 2 134 0T165 -1Z"  />
<glyph unicode="&#xE7;" horiz-adv-x="458" d="M177 -193Q212 -216 239 -216Q288 -216 288 -145Q288 -78 243 -78Q227 -78 205 -90L193 -75L249 -14Q187 -11 144 15Q99 42 72 89Q44 136 44 198Q44 292 110 360Q172 422 263 422Q334 422 384 386Q419 360 419 315Q419 266 370 266Q324 266 324 298Q324 303 326 314T334 343Q337 353 337 363Q337 382 318 395Q297 410 256 410Q187 410 159 350Q138 299 138 196Q138 151 143 116T161 57Q189 0 266 0Q380 0 410 108L425 105Q398 -9 268 -14L215 -72Q240 -58 264 -58Q291 -58 313 -75Q342 -101 342 -140Q342 -179 314 -205Q285 -232 244 -232Q209 -232 168 -203L177 -193ZM169 390Q56 322 56 202Q56 115 117 53Q145 28 183 9Q146 36 128 64Q92 119 92 202Q92 317 169 390ZM328 401Q350 388 350 364Q350 359 349 349T342 324Q336 306 336 300Q336 282 357 282Q380 282 380 317Q380 377 328 401ZM230 -72Q235 -71 238 -71T244 -71Q301 -71 301 -144Q301 -223 238 -223Q226 -223 205 -217Q225 -225 244 -225Q279 -225 305 -201Q329 -176 329 -140Q329 -104 305 -81Q286 -65 264 -65Q247 -65 230 -72Z"  />
<glyph unicode="&#xE8;" horiz-adv-x="478" d="M425 105Q393 -14 259 -14Q175 -14 117 35Q44 96 44 198Q44 294 110 360Q172 422 256 422Q314 422 359 392Q434 341 434 241V237H138V198Q138 103 161 57Q189 0 266 0Q380 0 410 108L425 105ZM337 251Q340 278 340 302Q340 359 321 384Q301 410 255 410Q187 410 159 350Q152 333 147 308T140 251H337ZM169 390Q56 322 56 202Q56 115 117 53Q145 28 183 9Q146 36 128 64Q92 119 92 203Q92 317 169 390ZM386 251Q386 287 372 329Q357 374 327 395Q338 382 345 364Q352 344 352 302Q352 290 352 277T350 251H386ZM124 644Q108 655 108 670Q108 685 120 694Q130 703 142 703Q155 703 166 691Q171 688 189 665L302 527H288L124 644ZM175 658Q151 688 137 688Q129 688 124 683Q118 677 118 670Q118 660 133 650L262 560L175 658Z"  />
<glyph unicode="&#xE9;" horiz-adv-x="478" d="M425 105Q393 -14 259 -14Q175 -14 117 35Q44 96 44 198Q44 294 110 360Q172 422 256 422Q314 422 359 392Q434 341 434 241V237H138V198Q138 103 161 57Q189 0 266 0Q380 0 410 108L425 105ZM337 251Q340 278 340 302Q340 359 321 384Q301 410 255 410Q187 410 159 350Q152 333 147 308T140 251H337ZM169 390Q56 322 56 202Q56 115 117 53Q145 28 183 9Q146 36 128 64Q92 119 92 203Q92 317 169 390ZM386 251Q386 287 372 329Q357 374 327 395Q338 382 345 364Q352 344 352 302Q352 290 352 277T350 251H386ZM323 665Q334 677 340 684T348 694Q358 703 370 703Q381 703 392 694Q404 686 404 670Q404 654 388 644L223 527H211L323 665ZM373 649Q387 660 387 670Q387 678 382 683Q377 688 369 688Q355 688 331 658L251 560L373 649Z"  />
<glyph unicode="&#xEA;" horiz-adv-x="478" d="M425 105Q393 -14 259 -14Q175 -14 117 35Q44 96 44 198Q44 294 110 360Q172 422 256 422Q314 422 359 392Q434 341 434 241V237H138V198Q138 103 161 57Q189 0 266 0Q380 0 410 108L425 105ZM337 251Q340 278 340 302Q340 359 321 384Q301 410 255 410Q187 410 159 350Q152 333 147 308T140 251H337ZM169 390Q56 322 56 202Q56 115 117 53Q145 28 183 9Q146 36 128 64Q92 119 92 203Q92 317 169 390ZM386 251Q386 287 372 329Q357 374 327 395Q338 382 345 364Q352 344 352 302Q352 290 352 277T350 251H386ZM225 687H278L386 527H374L252 628L130 527H117L225 687ZM252 642L307 597L269 676H231L151 559L252 642Z"  />
<glyph unicode="&#xEB;" horiz-adv-x="478" d="M425 105Q393 -14 259 -14Q175 -14 117 35Q44 96 44 198Q44 294 110 360Q172 422 256 422Q314 422 359 392Q434 341 434 241V237H138V198Q138 103 161 57Q189 0 266 0Q380 0 410 108L425 105ZM337 251Q340 278 340 302Q340 359 321 384Q301 410 255 410Q187 410 159 350Q152 333 147 308T140 251H337ZM169 390Q56 322 56 202Q56 115 117 53Q145 28 183 9Q146 36 128 64Q92 119 92 203Q92 317 169 390ZM386 251Q386 287 372 329Q357 374 327 395Q338 382 345 364Q352 344 352 302Q352 290 352 277T350 251H386ZM168 633Q185 633 198 620T211 589Q211 570 198 558T167 545Q149 545 136 557T123 589Q123 608 136 620T168 633ZM167 620Q153 620 144 611T135 589Q135 575 144 567T167 557V620ZM345 633Q362 633 375 620T388 589Q388 570 375 558T344 545Q326 545 313 557T300 589Q300 608 313 620T345 633ZM344 620Q330 620 321 611T312 589Q312 575 321 567T344 557V620Z"  />
<glyph unicode="&#xEC;" horiz-adv-x="283" d="M29 12H103V397H29V410H184V12H259V0H29V12ZM145 12V397H116V12H145ZM28 644Q12 655 12 670Q12 685 24 694Q34 703 46 703Q59 703 70 691Q75 688 93 665L206 527H192L28 644ZM79 658Q55 688 41 688Q33 688 28 683Q22 677 22 670Q22 660 37 650L166 560L79 658Z"  />
<glyph unicode="&#xED;" horiz-adv-x="283" d="M29 12H103V397H29V410H184V12H259V0H29V12ZM145 12V397H116V12H145ZM214 665Q225 677 231 684T239 694Q249 703 261 703Q272 703 283 694Q295 686 295 670Q295 654 279 644L114 527H102L214 665ZM264 649Q278 660 278 670Q278 678 273 683Q268 688 260 688Q246 688 222 658L142 560L264 649Z"  />
<glyph unicode="&#xEE;" horiz-adv-x="283" d="M29 12H103V397H29V410H184V12H259V0H29V12ZM145 12V397H116V12H145ZM111 687H164L272 527H260L138 628L16 527H3L111 687ZM138 642L193 597L155 676H117L37 559L138 642Z"  />
<glyph unicode="&#xEF;" horiz-adv-x="283" d="M29 12H103V397H29V410H184V12H259V0H29V12ZM145 12V397H116V12H145ZM49 633Q66 633 79 620T92 589Q92 570 79 558T48 545Q30 545 17 557T4 589Q4 608 17 620T49 633ZM48 620Q34 620 25 611T16 589Q16 575 25 567T48 557V620ZM226 633Q243 633 256 620T269 589Q269 570 256 558T225 545Q207 545 194 557T181 589Q181 608 194 620T226 633ZM225 620Q211 620 202 611T193 589Q193 575 202 567T225 557V620Z"  />
<glyph unicode="&#xF0;" horiz-adv-x="532" d="M121 526L233 592Q207 615 178 635T114 672L119 683Q211 643 261 608L373 675L380 664L271 601Q340 549 393 478Q437 418 461 352Q487 282 487 213Q487 108 413 42Q349 -14 266 -14Q187 -14 123 39Q91 67 69 107Q44 155 44 204Q44 297 123 365Q189 422 267 422Q328 422 364 383Q328 504 243 584L128 516L121 526ZM265 410Q197 410 167 360Q138 312 138 209Q138 100 166 50Q193 -1 265 -1Q338 -1 365 50Q393 100 393 207Q393 312 364 360Q334 410 265 410ZM171 385Q139 365 120 347Q57 285 57 203Q57 143 94 89Q127 41 185 13Q149 41 130 67Q93 120 93 202Q93 277 127 332Q140 354 171 385ZM360 21Q441 79 441 214Q441 378 327 522Q280 582 219 621Q291 562 332 490Q349 461 362 427T387 353Q407 281 407 205Q407 68 360 21Z"  />
<glyph unicode="&#xF1;" horiz-adv-x="585" d="M29 12H103V314V333Q102 377 100 397H29V410H181Q182 389 182 364T182 308Q205 350 225 371Q271 420 349 420Q427 420 466 374Q483 354 487 330Q491 318 491 286V12H565V0H335V12H410V300Q410 353 401 371Q386 406 334 406Q259 406 214 336Q184 291 184 229V12H259V0H29V12ZM145 12V308Q144 343 144 365T143 397H113Q114 388 114 378T115 357Q115 337 116 333V314V12H145ZM452 12V286Q453 333 435 364Q413 404 371 410Q406 399 414 371Q422 349 422 300V12H452ZM152 550Q160 588 178 609Q206 645 247 645Q269 645 304 626L324 617Q355 600 375 600Q413 600 437 647H451Q447 631 441 618T427 592Q398 550 352 550Q332 550 303 563L271 580Q243 594 224 594Q183 594 164 550H152ZM306 583Q332 569 353 569Q416 569 440 637Q416 589 374 589Q356 589 320 606L300 617Q264 634 247 634Q206 634 179 597Q174 590 170 582T161 561Q172 584 182 596Q201 614 225 614Q244 614 274 599L306 583Z"  />
<glyph unicode="&#xF2;" horiz-adv-x="532" d="M268 422Q341 422 409 365Q487 297 487 203Q487 110 408 42Q343 -14 266 -14Q187 -14 123 39Q91 67 69 107Q44 155 44 204Q44 298 123 365Q190 422 268 422ZM264 410Q197 410 167 360Q138 312 138 209Q138 100 166 50Q193 -1 265 -1Q338 -1 365 50Q393 100 393 207Q393 312 364 360Q334 410 264 410ZM171 385Q139 365 120 347Q57 285 57 203Q57 143 94 89Q127 41 185 13Q149 41 130 67Q93 120 93 202Q93 277 127 332Q140 354 171 385ZM362 385Q382 359 391 333Q399 309 403 279T407 210Q407 119 386 68Q376 43 348 13Q379 35 395 58Q441 122 441 205Q441 286 398 347Q392 356 383 365T362 385ZM151 644Q135 655 135 670Q135 685 147 694Q157 703 169 703Q182 703 193 691Q198 688 216 665L329 527H315L151 644ZM202 658Q178 688 164 688Q156 688 151 683Q145 677 145 670Q145 660 160 650L289 560L202 658Z"  />
<glyph unicode="&#xF3;" horiz-adv-x="532" d="M268 422Q341 422 409 365Q487 297 487 203Q487 110 408 42Q343 -14 266 -14Q187 -14 123 39Q91 67 69 107Q44 155 44 204Q44 298 123 365Q190 422 268 422ZM264 410Q197 410 167 360Q138 312 138 209Q138 100 166 50Q193 -1 265 -1Q338 -1 365 50Q393 100 393 207Q393 312 364 360Q334 410 264 410ZM171 385Q139 365 120 347Q57 285 57 203Q57 143 94 89Q127 41 185 13Q149 41 130 67Q93 120 93 202Q93 277 127 332Q140 354 171 385ZM362 385Q382 359 391 333Q399 309 403 279T407 210Q407 119 386 68Q376 43 348 13Q379 35 395 58Q441 122 441 205Q441 286 398 347Q392 356 383 365T362 385ZM338 665Q349 677 355 684T363 694Q373 703 385 703Q396 703 407 694Q419 686 419 670Q419 654 403 644L238 527H226L338 665ZM388 649Q402 660 402 670Q402 678 397 683Q392 688 384 688Q370 688 346 658L266 560L388 649Z"  />
<glyph unicode="&#xF4;" horiz-adv-x="532" d="M268 422Q341 422 409 365Q487 297 487 203Q487 110 408 42Q343 -14 266 -14Q187 -14 123 39Q91 67 69 107Q44 155 44 204Q44 298 123 365Q190 422 268 422ZM264 410Q197 410 167 360Q138 312 138 209Q138 100 166 50Q193 -1 265 -1Q338 -1 365 50Q393 100 393 207Q393 312 364 360Q334 410 264 410ZM171 385Q139 365 120 347Q57 285 57 203Q57 143 94 89Q127 41 185 13Q149 41 130 67Q93 120 93 202Q93 277 127 332Q140 354 171 385ZM362 385Q382 359 391 333Q399 309 403 279T407 210Q407 119 386 68Q376 43 348 13Q379 35 395 58Q441 122 441 205Q441 286 398 347Q392 356 383 365T362 385ZM239 687H292L400 527H388L266 628L144 527H131L239 687ZM266 642L321 597L283 676H245L165 559L266 642Z"  />
<glyph unicode="&#xF5;" horiz-adv-x="532" d="M268 422Q341 422 409 365Q487 297 487 203Q487 110 408 42Q343 -14 266 -14Q187 -14 123 39Q91 67 69 107Q44 155 44 204Q44 298 123 365Q190 422 268 422ZM264 410Q197 410 167 360Q138 312 138 209Q138 100 166 50Q193 -1 265 -1Q338 -1 365 50Q393 100 393 207Q393 312 364 360Q334 410 264 410ZM171 385Q139 365 120 347Q57 285 57 203Q57 143 94 89Q127 41 185 13Q149 41 130 67Q93 120 93 202Q93 277 127 332Q140 354 171 385ZM362 385Q382 359 391 333Q399 309 403 279T407 210Q407 119 386 68Q376 43 348 13Q379 35 395 58Q441 122 441 205Q441 286 398 347Q392 356 383 365T362 385ZM117 550Q125 588 143 609Q171 645 212 645Q234 645 269 626L289 617Q320 600 340 600Q378 600 402 647H416Q412 631 406 618T392 592Q363 550 317 550Q297 550 268 563L236 580Q208 594 189 594Q148 594 129 550H117ZM271 583Q297 569 318 569Q381 569 405 637Q381 589 339 589Q321 589 285 606L265 617Q229 634 212 634Q171 634 144 597Q139 590 135 582T126 561Q137 584 147 596Q166 614 190 614Q209 614 239 599L271 583Z"  />
<glyph unicode="&#xF6;" horiz-adv-x="532" d="M268 422Q341 422 409 365Q487 297 487 203Q487 110 408 42Q343 -14 266 -14Q187 -14 123 39Q91 67 69 107Q44 155 44 204Q44 298 123 365Q190 422 268 422ZM264 410Q197 410 167 360Q138 312 138 209Q138 100 166 50Q193 -1 265 -1Q338 -1 365 50Q393 100 393 207Q393 312 364 360Q334 410 264 410ZM171 385Q139 365 120 347Q57 285 57 203Q57 143 94 89Q127 41 185 13Q149 41 130 67Q93 120 93 202Q93 277 127 332Q140 354 171 385ZM362 385Q382 359 391 333Q399 309 403 279T407 210Q407 119 386 68Q376 43 348 13Q379 35 395 58Q441 122 441 205Q441 286 398 347Q392 356 383 365T362 385ZM178 633Q195 633 208 620T221 589Q221 570 208 558T177 545Q159 545 146 557T133 589Q133 608 146 620T178 633ZM177 620Q163 620 154 611T145 589Q145 575 154 567T177 557V620ZM355 633Q372 633 385 620T398 589Q398 570 385 558T354 545Q336 545 323 557T310 589Q310 608 323 620T355 633ZM354 620Q340 620 331 611T322 589Q322 575 331 567T354 557V620Z"  />
<glyph unicode="&#xF7;" horiz-adv-x="566" d="M53 238H512V220H53V238ZM283 118Q300 118 312 105Q323 92 323 78Q323 60 309 48Q298 37 282 37Q264 37 252 51Q242 61 242 78Q242 95 255 108Q266 118 283 118ZM283 421Q299 421 312 408Q323 395 323 381Q323 364 309 350Q297 340 282 340Q273 340 266 343T252 353Q242 364 242 381Q242 398 255 411Q268 421 283 421Z"  />
<glyph unicode="&#xF8;" horiz-adv-x="532" d="M121 -70L164 11Q152 18 142 25T123 39Q90 66 69 108Q44 156 44 205Q44 297 123 365Q189 422 265 422Q309 422 352 402L395 482L408 477L365 396Q377 389 387 381T409 365Q487 297 487 204Q487 110 408 42Q343 -14 266 -14Q243 -14 221 -10T177 6L133 -74L121 -70ZM344 385Q310 410 265 410Q196 410 167 360Q138 311 138 207Q138 83 176 35L344 385ZM185 25Q222 -1 266 -1Q338 -1 365 50Q393 100 393 211Q393 326 354 374L185 25ZM171 385Q139 365 120 347Q57 285 57 203Q57 143 94 89Q127 41 185 13Q149 41 130 67Q93 120 93 202Q93 277 127 332Q140 354 171 385ZM362 385Q382 359 391 333Q399 309 403 279T407 210Q407 119 386 68Q376 43 348 13Q379 35 395 58Q441 122 441 205Q441 286 398 347Q392 356 383 365T362 385Z"  />
<glyph unicode="&#xF9;" horiz-adv-x="566" d="M390 0Q389 20 389 45T389 101Q340 -14 239 -14Q193 -14 158 5Q116 26 103 63Q95 87 95 124V397H21V410H177V118Q177 88 179 68T189 34Q207 0 251 0Q317 0 359 73Q387 121 387 187V397H312V410H468V95V76Q469 33 471 12H542V0H390ZM138 397H108V124Q108 81 121 53Q137 25 188 6Q162 18 153 32Q138 50 138 110V397ZM432 12Q430 33 429 76V95V397H399V181Q399 176 399 160T400 117L401 83V51L402 22V12H432ZM149 644Q133 655 133 670Q133 685 145 694Q155 703 167 703Q180 703 191 691Q196 688 214 665L327 527H313L149 644ZM200 658Q176 688 162 688Q154 688 149 683Q143 677 143 670Q143 660 158 650L287 560L200 658Z"  />
<glyph unicode="&#xFA;" horiz-adv-x="566" d="M390 0Q389 20 389 45T389 101Q340 -14 239 -14Q193 -14 158 5Q116 26 103 63Q95 87 95 124V397H21V410H177V118Q177 88 179 68T189 34Q207 0 251 0Q317 0 359 73Q387 121 387 187V397H312V410H468V95V76Q469 33 471 12H542V0H390ZM138 397H108V124Q108 81 121 53Q137 25 188 6Q162 18 153 32Q138 50 138 110V397ZM432 12Q430 33 429 76V95V397H399V181Q399 176 399 160T400 117L401 83V51L402 22V12H432ZM362 665Q373 677 379 684T387 694Q397 703 409 703Q420 703 431 694Q443 686 443 670Q443 654 427 644L262 527H250L362 665ZM412 649Q426 660 426 670Q426 678 421 683Q416 688 408 688Q394 688 370 658L290 560L412 649Z"  />
<glyph unicode="&#xFB;" horiz-adv-x="566" d="M390 0Q389 20 389 45T389 101Q340 -14 239 -14Q193 -14 158 5Q116 26 103 63Q95 87 95 124V397H21V410H177V118Q177 88 179 68T189 34Q207 0 251 0Q317 0 359 73Q387 121 387 187V397H312V410H468V95V76Q469 33 471 12H542V0H390ZM138 397H108V124Q108 81 121 53Q137 25 188 6Q162 18 153 32Q138 50 138 110V397ZM432 12Q430 33 429 76V95V397H399V181Q399 176 399 160T400 117L401 83V51L402 22V12H432ZM258 687H311L419 527H407L285 628L163 527H150L258 687ZM285 642L340 597L302 676H264L184 559L285 642Z"  />
<glyph unicode="&#xFC;" horiz-adv-x="566" d="M390 0Q389 20 389 45T389 101Q340 -14 239 -14Q193 -14 158 5Q116 26 103 63Q95 87 95 124V397H21V410H177V118Q177 88 179 68T189 34Q207 0 251 0Q317 0 359 73Q387 121 387 187V397H312V410H468V95V76Q469 33 471 12H542V0H390ZM138 397H108V124Q108 81 121 53Q137 25 188 6Q162 18 153 32Q138 50 138 110V397ZM432 12Q430 33 429 76V95V397H399V181Q399 176 399 160T400 117L401 83V51L402 22V12H432ZM197 633Q214 633 227 620T240 589Q240 570 227 558T196 545Q178 545 165 557T152 589Q152 608 165 620T197 633ZM196 620Q182 620 173 611T164 589Q164 575 173 567T196 557V620ZM374 633Q391 633 404 620T417 589Q417 570 404 558T373 545Q355 545 342 557T329 589Q329 608 342 620T374 633ZM373 620Q359 620 350 611T341 589Q341 575 350 567T373 557V620Z"  />
<glyph unicode="&#xFD;" horiz-adv-x="459" d="M60 397H-7V410H227V397H148L271 96L401 397H321V410H467V397H416L277 72Q263 40 249 3T218 -76Q176 -188 153 -224Q133 -258 111 -268Q92 -278 65 -278Q24 -278 0 -257Q-23 -236 -23 -204Q-23 -157 26 -157Q45 -157 55 -164Q69 -173 69 -188Q69 -197 55 -228Q52 -239 52 -244Q52 -263 76 -263Q106 -263 126 -237Q137 -223 149 -202T173 -149Q185 -121 198 -88T226 -13L60 397ZM249 42L105 397H73L233 3L249 42ZM49 -265Q25 -255 25 -230Q25 -225 28 -201Q29 -197 29 -191Q29 -175 11 -175Q-11 -175 -11 -204Q-11 -251 49 -265ZM358 665Q369 677 375 684T383 694Q393 703 405 703Q416 703 427 694Q439 686 439 670Q439 654 423 644L258 527H246L358 665ZM408 649Q422 660 422 670Q422 678 417 683Q412 688 404 688Q390 688 366 658L286 560L408 649Z"  />
<glyph unicode="&#xFE;" horiz-adv-x="563" d="M29 -256H103V676H29V689H184V324Q224 422 317 422Q384 422 444 368Q519 300 519 205Q519 109 453 43Q394 -14 316 -14Q217 -14 184 84V-256H259V-268H29V-256ZM190 296Q186 276 184 255T182 209Q182 94 219 43Q250 -1 314 -1Q375 -1 399 42Q415 72 420 108Q422 129 423 151T425 199Q425 285 418 317Q400 410 313 410Q257 410 220 362Q208 347 201 331T190 296ZM395 391Q416 366 423 341Q431 316 434 282T437 203Q437 158 434 124T423 66Q416 40 395 16Q473 85 473 203Q473 322 395 391ZM145 -256V676H116V-256H145Z"  />
<glyph unicode="&#xFF;" horiz-adv-x="459" d="M60 397H-7V410H227V397H148L271 96L401 397H321V410H467V397H416L277 72Q263 40 249 3T218 -76Q176 -188 153 -224Q133 -258 111 -268Q92 -278 65 -278Q24 -278 0 -257Q-23 -236 -23 -204Q-23 -157 26 -157Q45 -157 55 -164Q69 -173 69 -188Q69 -197 55 -228Q52 -239 52 -244Q52 -263 76 -263Q106 -263 126 -237Q137 -223 149 -202T173 -149Q185 -121 198 -88T226 -13L60 397ZM249 42L105 397H73L233 3L249 42ZM49 -265Q25 -255 25 -230Q25 -225 28 -201Q29 -197 29 -191Q29 -175 11 -175Q-11 -175 -11 -204Q-11 -251 49 -265ZM178 633Q195 633 208 620T221 589Q221 570 208 558T177 545Q159 545 146 557T133 589Q133 608 146 620T178 633ZM177 620Q163 620 154 611T145 589Q145 575 154 567T177 557V620ZM355 633Q372 633 385 620T398 589Q398 570 385 558T354 545Q336 545 323 557T310 589Q310 608 323 620T355 633ZM354 620Q340 620 331 611T322 589Q322 575 331 567T354 557V620Z"  />
<glyph unicode="&#x131;" horiz-adv-x="283" d="M29 12H103V397H29V410H184V12H259V0H29V12ZM145 12V397H116V12H145Z"  />
<glyph unicode="&#x152;" horiz-adv-x="1032" d="M577 0Q532 0 454 -6Q443 -7 434 -7T414 -7Q352 -7 300 13T202 73Q74 184 74 337Q74 393 90 443T140 539Q248 686 422 686Q433 686 452 685T499 682Q519 681 537 681T574 680H940V515H929Q913 582 871 625Q845 652 810 662Q789 668 754 668H611V370H673Q731 368 761 409Q773 426 782 450T798 507H809V220H798Q786 285 761 320Q742 347 711 353Q700 357 673 357H611V12H781Q904 6 951 203H962V0H577ZM516 668Q487 670 463 671T421 672Q299 672 244 597Q182 514 182 337Q182 165 237 81Q288 6 413 6Q460 6 516 12V668ZM254 627Q236 616 221 604T192 579Q86 474 86 337Q86 214 179 112Q192 98 206 85T237 60Q127 180 127 341Q127 463 188 552Q200 570 216 589T254 627ZM909 668L829 669Q877 650 909 596V668ZM778 411Q757 376 721 364Q754 353 778 318V411ZM931 12V106Q899 37 849 12H931ZM563 12V668H528V12H563Z"  />
<glyph unicode="&#x153;" horiz-adv-x="817" d="M764 105Q731 -14 598 -14Q497 -14 430 62Q354 -14 266 -14Q187 -14 123 39Q91 67 69 107Q44 155 44 205Q44 298 123 366Q190 422 265 422Q359 422 433 342Q498 422 595 422Q653 422 697 392Q772 341 772 241V237H478Q477 226 477 217T477 199Q477 152 482 117T500 57Q530 0 605 0Q719 0 749 108L764 105ZM264 410Q197 410 167 360Q138 312 138 209Q138 100 166 50Q193 -1 265 -1Q338 -1 365 50Q393 100 393 208Q393 312 364 360Q334 410 264 410ZM676 251Q679 278 679 302Q679 359 660 384Q640 410 594 410Q526 410 499 350Q483 317 478 251H676ZM171 385Q57 314 57 203Q57 143 94 89Q127 41 185 13Q149 41 130 67Q93 122 93 202Q93 277 127 332Q134 344 145 357T171 385ZM421 305Q401 355 362 385Q382 359 391 333Q399 309 403 278T407 209Q407 75 362 23Q398 49 420 102Q452 41 522 9Q505 23 491 36T469 64Q434 118 434 203Q434 317 508 390Q451 358 421 305ZM724 251V257Q724 274 721 292T711 329Q696 374 665 395Q678 380 684 364Q691 344 691 302Q691 290 691 277T689 251H724Z"  />
<glyph unicode="&#x160;" horiz-adv-x="637" d="M72 206H82Q100 121 141 65Q195 -3 304 -3Q382 -3 428 32Q442 43 452 57T470 89Q482 119 482 153Q482 234 421 268Q391 286 306 310Q269 321 244 328T205 342Q88 388 88 498Q88 560 122 609Q155 660 214 681Q235 689 256 693T301 697Q321 697 338 695T371 687Q376 685 387 681T417 668Q427 664 434 662T448 660Q466 660 477 680H489V507H478Q465 576 431 622Q405 656 371 671Q356 678 339 681T301 685Q232 685 184 648Q139 612 139 555Q139 488 203 451Q236 432 335 405Q368 396 391 389T429 377Q557 327 557 207Q557 139 512 77Q468 18 403 -3Q382 -9 357 -12T299 -16Q276 -16 257 -14T219 -8Q210 -6 195 -2T158 11Q131 21 114 21Q92 21 85 0H72V206ZM469 650Q460 647 450 647Q439 647 421 652Q439 637 450 620T469 583V650ZM84 22Q96 33 116 33Q133 33 153 26Q139 40 129 51T113 74Q105 85 99 97T84 126V22ZM460 45Q486 68 497 89Q520 129 520 181Q520 269 461 308Q447 317 431 324T394 338Q380 343 362 348T323 361Q232 389 202 403Q120 442 120 530Q120 551 126 573T145 621Q100 565 100 500Q100 419 164 377Q176 369 194 361T237 345Q244 343 262 337T310 323Q356 309 385 298T430 278Q495 242 495 151Q495 114 482 84Q475 67 460 45ZM176 885H189L311 784L433 885H445L337 726H284L176 885ZM328 736L366 816L311 771L210 854L290 736H328Z"  />
<glyph unicode="&#x161;" horiz-adv-x="407" d="M53 134H64Q107 -1 210 -1Q248 -1 270 19Q294 40 294 79Q294 111 276 129Q269 136 254 143T216 159Q210 161 195 166T157 179Q113 194 91 214Q61 241 61 294Q61 353 106 391Q144 422 200 422Q232 422 268 407Q281 401 289 401Q299 401 307 410H318V301H307Q293 347 275 371Q246 409 197 409Q160 409 132 390Q103 369 103 334Q103 292 149 271Q158 267 176 261T222 247Q251 239 270 232T303 218Q361 190 361 122Q361 65 317 25Q273 -14 209 -14Q191 -14 170 -10T124 4Q110 9 102 11T88 13Q74 13 64 0H53V134ZM302 391Q294 389 290 389Q282 389 266 396Q288 379 302 350V391ZM66 17Q79 25 91 25Q101 25 116 19Q100 29 82 56Q77 64 74 71T66 86V17ZM283 13Q325 50 325 102Q325 139 303 163Q288 180 228 201Q221 203 207 208T169 221Q125 235 103 259Q84 281 84 312Q84 331 95 359Q74 329 74 293Q74 232 122 207Q141 198 195 180Q224 170 243 163T271 149Q307 128 307 79Q307 41 283 13ZM69 687H82L204 585L326 687H338L230 527H177L69 687ZM221 538L259 617L204 572L103 655L183 538H221Z"  />
<glyph unicode="&#x178;" horiz-adv-x="672" d="M194 12H300V287L85 668H-4V680H290V668H195L386 330L565 668H470V680H675V668H582L395 318V12H501V0H194V12ZM348 12V301L140 668H97L312 287V12H348ZM286 832Q303 832 316 819T329 788Q329 769 316 757T285 744Q267 744 254 756T241 788Q241 807 254 819T286 832ZM285 819Q271 819 262 810T253 788Q253 774 262 766T285 756V819ZM463 832Q480 832 493 819T506 788Q506 769 493 757T462 744Q444 744 431 756T418 788Q418 807 431 819T463 832ZM462 819Q448 819 439 810T430 788Q430 774 439 766T462 756V819Z"  />
<glyph unicode="&#x17D;" horiz-adv-x="621" d="M442 668H305Q155 674 113 514H102V680H557L157 12H362Q408 12 438 26Q495 53 531 123Q551 163 562 209H572V0H43L442 668ZM104 12L497 668H456L63 12H104ZM541 12V108Q506 43 438 12H541ZM115 596Q138 640 177 668H115V596ZM188 885H201L323 784L445 885H457L349 726H296L188 885ZM340 736L378 816L323 771L222 854L302 736H340Z"  />
<glyph unicode="&#x17E;" horiz-adv-x="407" d="M272 397H167Q130 397 113 383Q87 365 63 303H56L69 410H372L134 12H263Q300 12 320 29Q351 52 372 124H380L368 0H34L272 397ZM89 12L319 397H286L56 12H89ZM355 12L360 60Q347 32 320 12H355ZM74 353Q81 367 90 378T114 397H80L74 353ZM90 687H103L225 585L347 687H359L251 527H198L90 687ZM242 538L280 617L225 572L124 655L204 538H242Z"  />
<glyph unicode="&#x192;" horiz-adv-x="637" d="M244 210L252 309L253 325H124V339H254Q267 443 292 519Q322 608 373 653Q420 694 475 694Q520 694 549 668Q579 641 579 605Q579 563 536 563Q497 563 497 595Q497 606 504 621Q513 636 513 647Q513 665 500 671Q487 681 466 681Q406 681 379 589Q372 566 365 518T350 394L345 353L343 339H469V325H341Q303 41 254 -117Q230 -195 202 -231Q175 -268 127 -268Q78 -268 51 -237Q33 -218 33 -191Q33 -173 45 -162Q57 -153 74 -153Q89 -153 98 -159Q110 -167 110 -180Q110 -185 102 -204Q95 -219 95 -230Q95 -256 131 -256Q193 -256 208 -169Q213 -146 217 -113T224 -36Q225 -28 227 6T235 101L244 210ZM221 -172Q265 -37 289 224Q300 335 311 414T337 541Q358 614 393 653Q324 602 288 461Q280 426 273 379T261 268Q259 250 256 209T247 101Q236 -48 232 -90Q230 -112 227 -132T221 -172ZM88 -248Q79 -243 75 -237Q70 -229 70 -217Q70 -205 74 -194Q75 -188 75 -185T76 -180Q76 -169 64 -169Q46 -169 46 -191Q46 -229 88 -248ZM519 671Q526 659 526 648Q526 635 516 615Q509 602 509 595Q509 579 526 579Q543 579 543 600Q543 647 519 671Z"  />
<glyph unicode="&#x2C6;" horiz-adv-x="265" d="M106 687H159L267 527H255L133 628L11 527H-2L106 687ZM133 642L188 597L150 676H112L32 559L133 642Z"  />
<glyph unicode="&#x2C7;" horiz-adv-x="265" d="M-2 687H11L133 585L255 687H267L159 527H106L-2 687ZM150 538L188 617L133 572L32 655L112 538H150Z"  />
<glyph unicode="&#x2DA;" horiz-adv-x="265" d="M134 708Q163 708 189 685Q221 658 221 622Q221 584 189 557Q164 535 133 535Q100 535 76 556Q45 583 45 622Q45 660 76 685Q105 708 134 708ZM132 694Q87 694 87 623Q87 576 101 560Q113 547 133 547Q155 547 166 562Q179 576 179 623Q179 666 163 682Q154 694 132 694ZM106 695Q98 691 93 688T82 680Q54 655 54 622Q54 587 82 562Q87 557 93 554T107 546Q100 550 96 554T90 562Q77 584 77 623Q77 678 106 695ZM159 695Q187 677 187 623Q187 586 176 562Q171 554 158 546Q171 552 183 562Q211 587 211 621Q211 655 183 680Q178 685 173 688T159 695Z"  />
<glyph unicode="&#x2DC;" horiz-adv-x="265" d="M-16 550Q-8 588 10 609Q38 645 79 645Q101 645 136 626L156 617Q187 600 207 600Q245 600 269 647H283Q279 631 273 618T259 592Q230 550 184 550Q164 550 135 563L103 580Q75 594 56 594Q15 594 -4 550H-16ZM138 583Q164 569 185 569Q248 569 272 637Q248 589 206 589Q188 589 152 606L132 617Q96 634 79 634Q38 634 11 597Q6 590 2 582T-7 561Q4 584 14 596Q33 614 57 614Q76 614 106 599L138 583Z"  />
<glyph unicode="&#x2013;" horiz-adv-x="496" d="M-4 216H499V202H-4V216Z"  />
<glyph unicode="&#x2014;" horiz-adv-x="1000" d="M124 216H876V202H124V216Z"  />
<glyph unicode="&#x2018;" horiz-adv-x="265" d="M180 687Q91 620 91 557Q91 532 104 513Q114 522 124 527T149 532Q172 532 186 518Q202 502 202 480Q202 460 185 443Q168 426 141 426Q106 426 86 455Q64 486 64 522Q64 579 105 633Q132 667 172 697L180 687ZM149 520Q132 518 120 511Q102 497 102 477Q102 459 114 449Q123 438 139 438Q144 438 149 439V520Z"  />
<glyph unicode="&#x2019;" horiz-adv-x="265" d="M85 437Q175 503 175 567Q175 593 158 616Q139 591 116 591Q94 591 78 605Q64 622 64 643Q64 662 80 680Q99 697 124 697Q158 697 180 668Q202 638 202 601Q202 545 160 491Q135 457 94 426L85 437ZM123 605V685Q105 685 95 676Q76 664 76 643Q76 627 88 615Q98 605 115 605H123Z"  />
<glyph unicode="&#x201A;" horiz-adv-x="265" d="M85 -165Q175 -98 175 -35Q175 -10 158 13Q140 -11 116 -11Q93 -11 78 4Q64 20 64 41Q64 62 80 78Q97 95 124 95Q158 95 180 67Q202 36 202 -1Q202 -55 160 -112Q132 -148 94 -177L85 -165ZM123 83Q105 81 95 74Q76 62 76 40Q76 24 88 12Q100 2 114 2Q118 2 123 3V83Z"  />
<glyph unicode="&#x201C;" horiz-adv-x="424" d="M356 687Q269 622 269 562Q269 537 282 520Q300 538 326 538Q347 538 362 523Q376 509 376 488Q376 466 361 451Q345 435 319 435Q286 435 265 462Q244 489 244 528Q244 583 284 635Q308 668 348 697L356 687ZM326 448V524Q312 524 298 517Q281 506 281 484Q281 470 291 458Q303 448 317 448H326ZM179 687Q92 624 92 562Q92 536 104 520Q123 538 148 538Q170 538 184 523Q199 509 199 488Q199 466 183 451Q167 435 141 435Q108 435 87 462Q66 490 66 528Q66 583 106 635Q130 668 170 697L179 687ZM148 448V524Q134 524 120 517Q103 505 103 484Q103 469 114 458Q124 448 139 448H148Z"  />
<glyph unicode="&#x201D;" horiz-adv-x="424" d="M68 446Q155 510 155 571Q155 596 138 618Q121 595 97 595Q78 595 62 609Q48 625 48 645Q48 664 63 681Q81 697 105 697Q138 697 159 669Q180 644 180 604Q180 550 140 498Q117 467 76 435L68 446ZM105 685Q90 685 77 677Q60 663 60 645Q60 629 71 618Q80 607 95 607Q100 607 105 608V685ZM245 446Q332 509 332 571Q332 583 328 595T316 618Q299 595 275 595Q254 595 240 609Q225 624 225 645Q225 665 241 681Q259 697 283 697Q316 697 337 669Q358 642 358 604Q358 550 318 498Q295 467 254 435L245 446ZM283 685Q268 685 255 677Q238 663 238 645Q238 630 248 618Q259 607 273 607Q278 607 283 608V685Z"  />
<glyph unicode="&#x201E;" horiz-adv-x="424" d="M68 -160Q155 -96 155 -34Q155 -10 138 12Q121 -11 97 -11Q75 -11 62 4Q48 18 48 39Q48 60 63 75Q80 92 105 92Q137 92 159 64Q180 37 180 -2Q180 -56 140 -108Q128 -125 112 -140T76 -171L68 -160ZM105 79Q90 77 77 71Q60 59 60 39Q60 23 71 12Q81 2 96 2Q101 2 105 3V79ZM245 -160Q332 -97 332 -34Q332 -8 316 12Q299 -11 275 -11Q252 -11 240 4Q225 17 225 39Q225 60 241 75Q258 92 283 92Q315 92 337 64Q358 37 358 -2Q358 -56 318 -108Q295 -139 254 -171L245 -160ZM283 79Q268 78 255 71Q238 59 238 39Q238 24 248 12Q260 2 274 2Q279 2 283 3V79Z"  />
<glyph unicode="&#x2020;" horiz-adv-x="496" d="M241 4Q239 92 226 132Q209 187 178 206Q217 232 230 293Q241 344 242 432Q150 431 104 403Q87 393 74 393Q53 393 39 408Q28 421 28 438Q28 459 43 473Q57 484 74 484Q84 484 104 474Q150 446 242 445Q241 565 212 624Q202 643 202 653Q202 672 218 687Q231 698 248 698Q269 698 283 683Q294 669 294 653Q294 643 285 624Q270 595 263 551T255 445Q347 446 393 474Q402 479 409 481T423 484Q443 484 457 469Q469 455 469 438Q469 419 454 404Q442 393 423 393Q410 393 393 403Q347 431 255 432Q256 386 258 352T266 293Q277 245 299 223Q303 219 307 215T319 206Q288 187 270 132Q257 90 256 4V-266H241V4ZM247 320Q238 240 199 206Q218 189 233 152Q238 137 241 120T247 84V320ZM456 438Q456 449 452 456Q441 472 423 472Q414 472 398 463Q369 446 327 438H456ZM247 685Q233 685 224 675T215 653Q215 647 223 628Q242 590 247 541V685ZM170 438Q127 446 98 463Q83 472 74 472Q56 472 45 456Q41 449 41 438H170Z"  />
<glyph unicode="&#x2021;" horiz-adv-x="496" d="M177 214Q188 221 196 229T211 247Q222 267 229 294T239 360Q240 373 240 391T241 432Q150 431 104 403Q87 393 74 393Q53 393 39 408Q28 421 28 438Q28 459 43 473Q57 484 74 484Q84 484 104 474Q148 446 241 445Q240 565 211 624Q206 634 204 641T202 653Q202 673 217 687Q230 698 247 698Q267 698 282 683Q293 669 293 653Q293 643 284 624Q255 565 254 445Q347 446 391 474Q411 484 421 484Q441 484 456 469Q467 455 467 438Q467 419 452 404Q440 393 421 393Q408 393 391 403Q345 431 254 432Q255 387 257 354T265 298Q275 252 297 230Q302 226 306 223T318 214Q294 198 284 180Q262 144 256 68Q255 55 255 37T254 -4Q345 -3 391 25Q408 35 421 35Q442 35 456 20Q467 6 467 -11Q467 -30 452 -45Q440 -56 421 -56Q408 -56 391 -46Q347 -18 254 -17Q256 -139 284 -196Q293 -216 293 -225Q293 -244 278 -259Q264 -270 247 -270Q228 -270 213 -255Q202 -243 202 -225Q202 -220 204 -213T211 -196Q239 -139 241 -17Q150 -18 104 -46Q87 -56 74 -56Q53 -56 39 -41Q28 -27 28 -11Q28 10 43 24Q55 35 74 35Q87 35 104 25Q150 -3 241 -4Q239 84 229 130Q221 174 198 198Q193 201 188 205T177 214ZM247 323Q237 250 202 218L199 214L202 211Q237 179 247 105V323ZM169 -11Q126 -3 97 14Q82 23 73 23Q56 23 45 7Q43 3 42 -1T40 -11H169ZM247 -114Q241 -163 223 -202Q214 -217 214 -225Q214 -242 231 -253Q235 -255 238 -256T247 -258V-114ZM455 -11Q454 -6 453 -2T450 7Q439 23 422 23Q413 23 397 14Q368 -3 326 -11H455ZM455 438Q454 443 453 447T450 456Q439 472 422 472Q413 472 397 463Q368 446 326 438H455ZM247 685Q233 685 224 675T214 653Q214 646 223 628Q241 592 247 541V685ZM169 438Q126 446 97 463Q82 472 73 472Q56 472 45 456Q43 452 42 448T40 438H169Z"  />
<glyph unicode="&#x2022;" horiz-adv-x="478" d="M242 513Q314 513 367 456Q411 406 411 341Q411 263 353 212Q306 168 239 168Q162 168 111 225Q67 273 67 342Q67 416 124 469Q171 513 242 513ZM236 497Q171 497 122 445Q82 401 82 341Q82 272 134 224Q179 184 239 184Q308 184 355 236Q395 279 395 342Q395 409 344 456Q298 497 236 497ZM239 471Q259 470 275 466T305 454Q335 435 352 406Q370 376 370 340Q370 292 336 253Q299 211 239 210V471Z"  />
<glyph unicode="&#x2026;" horiz-adv-x="955" d="M160 92Q181 92 198 74Q211 59 211 41Q211 18 194 3Q178 -11 159 -11Q137 -11 121 7Q108 22 108 41Q108 63 125 78Q141 92 160 92ZM159 79Q149 78 140 74Q121 63 121 41Q121 17 140 8Q147 4 159 2V79ZM478 92Q499 92 516 74Q529 59 529 41Q529 18 512 3Q496 -11 478 -11Q455 -11 439 7Q426 22 426 41Q426 63 443 78Q459 92 478 92ZM478 79Q467 78 458 74Q439 63 439 41Q439 17 458 8Q465 4 478 2V79ZM796 92Q817 92 834 74Q847 59 847 41Q847 18 830 3Q814 -11 796 -11Q773 -11 757 7Q744 22 744 41Q744 63 761 78Q777 92 796 92ZM796 79Q785 78 776 74Q757 63 757 41Q757 17 776 8Q783 4 796 2V79Z"  />
<glyph unicode="&#x2030;" horiz-adv-x="955" d="M186 694Q234 694 276 658Q327 613 327 555Q327 495 276 452Q233 415 185 415Q134 415 94 450Q83 459 75 470T59 493Q43 525 43 555Q43 616 94 658Q136 694 186 694ZM183 681Q142 681 122 650Q103 617 103 557Q103 490 121 459Q140 428 184 428Q230 428 248 459Q258 475 262 499T266 557Q266 621 247 650Q228 681 183 681ZM109 654Q55 611 55 555Q55 511 85 477Q90 470 96 464T111 452Q77 494 77 556Q77 614 109 654ZM261 654Q270 635 275 611T280 557Q280 495 261 455Q302 496 302 554Q302 615 261 654ZM121 -6L485 694L502 686L139 -14L121 -6ZM441 265Q488 265 531 228Q582 185 582 125Q582 67 531 22Q489 -14 440 -14Q387 -14 349 20Q338 29 330 40T314 63Q298 95 298 125Q298 187 349 228Q392 265 441 265ZM438 252Q395 252 376 222Q357 189 357 128Q357 62 375 31Q395 -1 439 -1Q485 -1 503 31Q513 47 517 71T521 128Q521 193 502 222Q484 252 438 252ZM364 224Q310 182 310 126Q310 83 340 47Q350 34 365 23Q332 65 332 127Q332 186 364 224ZM515 225Q534 187 534 128Q534 66 515 26Q556 67 556 125Q556 186 515 225ZM771 265Q818 265 860 228Q911 186 911 125Q911 65 860 22Q819 -14 770 -14Q718 -14 678 20Q656 39 644 63Q627 94 627 125Q627 186 678 228Q700 246 722 255T771 265ZM768 252Q725 252 707 222Q688 191 688 128Q688 95 692 71T706 31Q724 -1 770 -1Q813 -1 833 31Q851 62 851 128Q851 190 832 222Q812 252 768 252ZM693 224Q640 183 640 126Q640 82 669 47Q674 40 680 35T695 23Q662 65 662 127Q662 187 693 224ZM845 225Q864 190 864 128Q864 64 845 26Q886 66 886 125Q886 187 845 225Z"  />
<glyph unicode="&#x2039;" horiz-adv-x="265" d="M202 68Q138 80 107 103Q57 139 57 203Q57 275 116 309Q144 327 202 338L203 327Q116 304 116 203Q116 101 203 79L202 68ZM138 102Q128 113 122 121T111 138Q97 168 97 203Q97 256 127 292Q129 294 132 298T140 308Q70 276 70 203Q70 128 140 98L138 102Z"  />
<glyph unicode="&#x203A;" horiz-adv-x="265" d="M62 79Q150 102 150 203Q150 304 62 327L64 338Q128 325 159 304Q208 268 208 203Q208 132 150 96Q118 77 64 68L62 79ZM125 98Q189 128 189 203Q189 277 125 308Q162 268 162 203Q162 136 125 98Z"  />
<glyph unicode="&#x20AC;" horiz-adv-x="637" d="M532 136Q527 113 520 93T499 56Q449 -14 346 -14Q240 -14 180 76Q133 148 124 287H29V302H124Q123 311 123 321T123 341Q123 358 123 374T125 407H57V421H126Q140 551 193 618Q224 656 265 675T368 694Q419 694 450 684T503 654Q533 627 533 586Q533 531 485 531Q444 531 444 565Q444 579 454 598Q459 610 461 619T464 634Q464 652 445 666Q434 674 418 677T369 681Q314 681 286 659T243 592Q232 561 227 519T218 421H436V407H218Q217 391 217 374T217 340V302H408V287H217Q219 253 221 222T227 162Q242 57 273 26Q287 12 306 6T349 -1Q390 -1 426 14Q467 32 490 67Q508 94 517 138L532 136ZM267 663Q245 651 226 635T192 596Q136 513 136 340Q136 79 265 16Q229 44 210 85Q172 167 172 341Q172 531 222 612Q240 643 267 663ZM466 665Q477 649 477 634Q477 618 464 593Q456 575 456 565Q456 546 475 546Q495 546 495 584Q495 636 466 665Z"  />
<glyph unicode="&#x2122;" horiz-adv-x="780" d="M111 354H159V671H133Q69 673 48 592H40V681H328V592H320Q298 672 234 671H209V354H258V345H111V354ZM185 354V671H168V354H185ZM309 671H278Q295 663 309 643V671ZM50 639Q62 660 79 671H50V639ZM414 657V354H463V345H354V354H403V671H354V681H459L545 432L631 681H735V671H685V354H735V345H586V354H636V660L523 340L414 657ZM533 397L438 671H418L523 370L533 397ZM662 354V671H645V354H662Z"  />

</font>
</defs>
</svg>
